<svg xmlns="http://www.w3.org/2000/svg" viewBox="0 0 1229.5 1587.59"><defs><style>.cls-1,.cls-10,.cls-13,.cls-3{fill:#631941;}.cls-1,.cls-10,.cls-11,.cls-12,.cls-13,.cls-14,.cls-2,.cls-4,.cls-5,.cls-6,.cls-7,.cls-8,.cls-9{fill-rule:evenodd;}.cls-1{opacity:0.4;}.cls-14,.cls-2,.cls-6{fill:#fff;}.cls-4{fill:#b4acbd;}.cls-5{fill:#f9944b;}.cls-13,.cls-6{opacity:0.5;}.cls-7{fill:#f69;}.cls-8{fill:#7d6991;}.cls-9{fill:#e61e24;}.cls-11{fill:#fc0;}.cls-12{fill:#8e7ca3;}.cls-14{opacity:0.48;}</style></defs><g id="Layer_2" data-name="Layer 2"><g id="Layer_1-2" data-name="Layer 1"><path class="cls-1" d="M601.56,1314.15c230.61,0,417.57,61.21,417.57,136.72s-187,136.72-417.57,136.72S184,1526.37,184,1450.87s187-136.72,417.57-136.72"/><path class="cls-2" d="M880.78,652.24C968,334.91,777.14,91,456,160.06c-174,37.41-284,211.68-268.57,389a370.72,370.72,0,0,0,331.91,336.6c221.93,18.41,373-75.21,367.33-166.47-1.75-28-12.36-48.34-5.87-67"/><path class="cls-3" d="M900.26,408.83c15.62,72.65,12.8,156.12-11.63,245.22a6.68,6.68,0,0,1-.25.84c-3.27,9.37-1,20.53,1.7,33.53,1.87,9.1,3.91,19,4.62,30.31a90.35,90.35,0,0,1-.13,12.86c-3.27,39.5-32.73,78.2-82.41,108.08-48.36,29.06-116.26,50-197.88,55.17l-.21,0a660.16,660.16,0,0,1-95.41-1.14v0h-.13A378.84,378.84,0,0,1,179.36,549.77c-8-92.13,17.13-183.48,67.22-256C295,223.59,366.75,171,454.31,152.17c79.07-17,150.52-15.29,212.15,1.64,61.47,16.89,113.11,48.9,152.81,92.59s67.35,98.93,81,162.43m-27.16,241c23.72-86.5,26.49-167.39,11.39-237.65-13-60.65-39.43-113.38-77.16-154.92s-86.72-71.88-145.1-87.92C603.05,153.07,534.17,151.5,457.66,168,374.33,185.85,306,236,259.83,302.89c-48,69.5-72.09,157.1-64.38,245.49A362.63,362.63,0,0,0,520,877.64h0a642.52,642.52,0,0,0,93.07,1.14h.19c78.93-5,144.32-25.06,190.65-52.92,45.08-27.11,71.75-61.33,74.58-95.57a73.74,73.74,0,0,0,.13-10.6c-.64-10.19-2.55-19.5-4.3-28C871.17,676.39,868.49,663.3,873.1,649.82Z"/><path class="cls-4" d="M500.06,152.41q-21.6,2.84-44.08,7.65c-174,37.41-284,211.68-268.57,389,.22,2.58.48,5.16.76,7.73,5.22-134.89,172-132.21,272.91-226.72q117.88-114,39-177.67"/><path class="cls-5" d="M880.78,652.24c68.37-248.82-34.22-452.47-236.53-495.53-154.51,298.93,77.13,576.16,239,538.58-3.28-16.47-7-30.18-2.48-43"/><path class="cls-4" d="M216.92,364.27h0C259.86,263.62,344.87,183.94,456,160.06c8.19-1.77,16.27-3.27,24.28-4.63v0Q428,47.15,291.78,8.07C226.41,80,198.67,201.94,216.92,364.27"/><path class="cls-3" d="M222.13,334.39c21.81-41.95,51.13-79.5,86.71-109.89a329.78,329.78,0,0,1,145.47-72.33c4-.85,8.11-1.69,12.39-2.5l1.47-.27a245.45,245.45,0,0,0-66.1-78.62Q357.91,36.27,294.41,17.25c-30.3,34.88-51.92,81.42-63.92,138.51-10.79,51.32-13.79,111.13-8.36,178.63m-5.2,38h0v0a8.06,8.06,0,0,1-8-7.18c-9.12-81.17-6.85-152.46,5.8-212.67,13-61.89,37-112.16,70.83-149.53A8.08,8.08,0,0,1,294,.31q69.57,20,118,57.79a261.85,261.85,0,0,1,75.31,93.32,8,8,0,0,1,1,2.77v.05h0a8,8,0,0,1-6.64,9.14c-4,.68-8,1.39-11.91,2.13s-7.79,1.52-12,2.43a313.73,313.73,0,0,0-138.35,68.8c-40.92,34.95-73.2,79.86-94.73,130.16A8.11,8.11,0,0,1,216.93,372.35Z"/><path class="cls-6" d="M479.36,153.59Q428,49.16,297.63,9.8a127.91,127.91,0,0,0-7.78,11Q398.65,68.6,447.09,158.92q18-2.31,32.27-5.33"/><path class="cls-7" d="M277,267.58C316.29,222,367,186.83,426.18,168h0Q380.49,101,306.25,85q-32,68.65-29.28,182.59Z"/><path class="cls-3" d="M349.9,213.58a331.59,331.59,0,0,0-66.43,58.8,8.05,8.05,0,0,1-6.49,3.28h0v0a8.06,8.06,0,0,1-8.05-7.86q-1.38-57.7,6.05-104.07T298.7,82.16A8.08,8.08,0,0,1,308,77.1a193.42,193.42,0,0,1,70,30q31.23,21.6,54.91,56.29h0a8.07,8.07,0,0,1-4.21,12.21,312,312,0,0,0-78.71,37.93M284.8,247.1A344.86,344.86,0,0,1,341,200.2a328.74,328.74,0,0,1,72.35-36.37,193.73,193.73,0,0,0-44.52-43.45,176.29,176.29,0,0,0-57.91-26q-13.5,31.28-20,71.87Q285,202.9,284.8,247.1Z"/><path class="cls-5" d="M656.34,159.47v0c97.45,24.34,170.46,86.9,210.56,174H867a383.62,383.62,0,0,0,12.91-231.32C806,95.05,726,118.4,656.34,159.47"/><path class="cls-3" d="M677.23,157c41.62,12.88,78.51,32.89,110,58.89a318.12,318.12,0,0,1,78.48,97,375.51,375.51,0,0,0,7.79-203.12c-33.21-2.48-67.62,1.24-101.67,10A425.3,425.3,0,0,0,677.23,157M654.4,167.3a8.07,8.07,0,0,1-3-1.45,8,8,0,0,1-2-2.28,8.08,8.08,0,0,1,2.84-11c36.43-21.47,75.72-38.21,115.59-48.42,37.75-9.67,76-13.48,112.82-9.93h0a8.05,8.05,0,0,1,7,6,391.56,391.56,0,0,1-13,235.74,8,8,0,0,1-5.48,5.32l0,0h0a8.06,8.06,0,0,1-9.52-4.38c-19.75-42.88-47.67-79.66-82.69-108.6-34.31-28.36-75.48-49.22-122.51-61Z"/><path class="cls-6" d="M870,325.08a383.47,383.47,0,0,0,9.84-222.9q-2.85-.27-5.72-.48c-2.69,3-5.43,6.26-8.25,9.73q20.65,54.9-18.14,186.35Q859.2,316,870,325.08"/><path class="cls-7" d="M742.15,194.19a302.27,302.27,0,0,1,83,71.63l0,0q28.14-53.37,21.62-116.11c-29.28-4.54-64.18,7.5-104.71,44.49Z"/><path class="cls-3" d="M781.65,232.27a294.56,294.56,0,0,0-43-30.78,8.06,8.06,0,0,1-4.62-7.3h0a8,8,0,0,1,2.64-6c20.19-18.42,39.15-30.93,56.86-38.45,19.5-8.29,37.53-10.57,54.06-8.1a8.06,8.06,0,0,1,7.23,7.2,217.62,217.62,0,0,1-2.24,62.66,203.31,203.31,0,0,1-20.07,57.66,8.05,8.05,0,0,1-5.11,4.37l-.06,0v0a8.06,8.06,0,0,1-8.48-2.7,295.56,295.56,0,0,0-37.26-38.59m-26-39.25a310,310,0,0,1,67.75,58.15,185.8,185.8,0,0,0,13.37-42.54A199.59,199.59,0,0,0,839.42,157c-12.07-.75-25.24,1.57-39.52,7.64C786.16,170.43,771.42,179.72,755.68,193Z"/><path class="cls-2" d="M438.86,868.36A537.3,537.3,0,0,0,204,1243.55c-14,164.34,81.59,210.48,172.8,130.28,64.22-4.19,79.14-59.38,25.77-141.13q17.16-27.14,29.1-98,60.46,30,240.14,21.12c24.11-2.64,53.43-.68,64.82,23.1h0l.42.92,31.66-6q134.24-79.11,84.52-112Q771.64,932.4,716.39,870.44c-83.92,22.54-193.87,25.95-277.53-2.08"/><path class="cls-3" d="M435.47,1127.61a8.07,8.07,0,0,1,4.17,8.45M274.17,1026.39A545.28,545.28,0,0,1,434.41,861.65h0a8.06,8.06,0,0,1,7-.92C480.68,873.88,526,880,571.52,880.31c49.67.37,99.71-6.09,142.79-17.66h0a8.07,8.07,0,0,1,8.11,2.42q27.86,31.24,62.4,79.56,33.93,47.45,74.36,111.53a39.75,39.75,0,0,1,11.52,12h0l0,0a29.07,29.07,0,0,1,3.77,19.1c-.86,6.28-3.56,12.88-8.11,19.75q-20.19,30.5-93.15,73.54a8,8,0,0,1-3,1.22l-31.34,5.91a8.07,8.07,0,0,1-9.15-4.55l-.42-.91h0c-4.52-9.32-12.77-14.43-22.36-17-10.65-2.84-23-2.65-34.27-1.42h0l-.48,0q-90.53,4.44-151-.87-52.63-4.62-83.41-16.78a489.19,489.19,0,0,1-11.67,50.65q-6.49,21.84-14.13,35.61c19.47,30.83,29.46,58.16,30.93,80.64.81,12.47-1,23.55-5.15,33a54.12,54.12,0,0,1-20.29,23.69c-9.89,6.44-22.44,10.48-37.43,11.81-23.3,20-47,32.2-69.39,36.69-21.36,4.29-41.44,1.6-58.8-8s-31.58-25.65-41.61-48.34c-12.81-28.94-18.63-68.76-14.33-119.16h0l.05-.41A545.2,545.2,0,0,1,273.84,1027ZM440.09,877.25a528.9,528.9,0,0,0-152.22,157.66l-.37.54a529.23,529.23,0,0,0-75.43,208.76h0c-4,47.57,1.25,84.74,13,111.33,8.54,19.32,20.48,32.92,34.61,40.7s30.35,9.86,47.88,6.34c20.24-4.07,42.11-15.63,63.92-34.8a8,8,0,0,1,5.13-2c13.25-.9,24-4.14,32.15-9.42a38.14,38.14,0,0,0,14.29-16.68c3.16-7.13,4.47-15.68,3.83-25.51-1.36-20.82-11.36-46.94-31-77.09a8,8,0,0,1-.06-8.66h0q8-12.62,14.93-36,7.13-24,13-58.95a8.08,8.08,0,0,1,11.72-5.8q28.84,14.21,87.19,19.34,59.52,5.22,148.47.87c12.81-1.39,27.11-1.54,39.94,1.88,12.32,3.28,23.22,9.73,30.32,21.17l24.5-4.62q68.94-40.77,87-68.07,4.8-7.26,5.58-13a13.32,13.32,0,0,0-1.67-8.79h0a25.06,25.06,0,0,0-8-7.78,8.15,8.15,0,0,1-2.56-2.74Q805.73,1001.58,771.7,954q-31.91-44.62-58.06-74.48c-43.21,11.11-92.84,17.26-142.18,16.9C525.68,896.06,480.11,890.09,440.09,877.25Z"/><path class="cls-5" d="M324,971.45A537.6,537.6,0,0,0,221,1164.11c55.2,50.43,99.9,42.25,106.18-28.86,2.92-33.08-4.73-60,5.48-82.2q22.59-50.32-8.71-81.6"/><path class="cls-5" d="M529.94,1155.64q57.93,4.35,141.9.21c24.11-2.64,53.43-.68,64.82,23.1h0l.42.92,31.65-6q134.25-79.11,84.53-112-53.38-84.69-95.5-140.49A177,177,0,0,0,530,1061.23q-11,64.1,0,94.41"/><path class="cls-3" d="M435.47,1127.61a8.07,8.07,0,0,1,4.17,8.45M274.17,1026.39A545.28,545.28,0,0,1,434.41,861.65h0a8.06,8.06,0,0,1,7-.92C480.68,873.88,526,880,571.52,880.31c49.67.37,99.71-6.09,142.79-17.66h0a8.07,8.07,0,0,1,8.11,2.42q27.86,31.24,62.4,79.56,33.93,47.45,74.36,111.53a39.75,39.75,0,0,1,11.52,12h0l0,0a29.07,29.07,0,0,1,3.77,19.1c-.86,6.28-3.56,12.88-8.11,19.75q-20.19,30.5-93.15,73.54a8,8,0,0,1-3,1.22l-31.34,5.91a8.07,8.07,0,0,1-9.15-4.55l-.42-.91h0c-4.52-9.32-12.77-14.43-22.36-17-10.65-2.84-23-2.65-34.27-1.42h0l-.48,0q-90.53,4.44-151-.87-52.63-4.62-83.41-16.78a489.19,489.19,0,0,1-11.67,50.65q-6.49,21.84-14.13,35.61c19.47,30.83,29.46,58.16,30.93,80.64.81,12.47-1,23.55-5.15,33a54.12,54.12,0,0,1-20.29,23.69c-9.89,6.44-22.44,10.48-37.43,11.81-23.3,20-47,32.2-69.39,36.69-21.36,4.29-41.44,1.6-58.8-8s-31.58-25.65-41.61-48.34c-12.81-28.94-18.63-68.76-14.33-119.16h0l.05-.41A545.2,545.2,0,0,1,273.84,1027ZM440.09,877.25a528.9,528.9,0,0,0-152.22,157.66l-.37.54a529.23,529.23,0,0,0-75.43,208.76h0c-4,47.57,1.25,84.74,13,111.33,8.54,19.32,20.48,32.92,34.61,40.7s30.35,9.86,47.88,6.34c20.24-4.07,42.11-15.63,63.92-34.8a8,8,0,0,1,5.13-2c13.25-.9,24-4.14,32.15-9.42a38.14,38.14,0,0,0,14.29-16.68c3.16-7.13,4.47-15.68,3.83-25.51-1.36-20.82-11.36-46.94-31-77.09a8,8,0,0,1-.06-8.66h0q8-12.62,14.93-36,7.13-24,13-58.95a8.08,8.08,0,0,1,11.72-5.8q28.84,14.21,87.19,19.34,59.52,5.22,148.47.87c12.81-1.39,27.11-1.54,39.94,1.88,12.32,3.28,23.22,9.73,30.32,21.17l24.5-4.62q68.94-40.77,87-68.07,4.8-7.26,5.58-13a13.32,13.32,0,0,0-1.67-8.79h0a25.06,25.06,0,0,0-8-7.78,8.15,8.15,0,0,1-2.56-2.74Q805.73,1001.58,771.7,954q-31.91-44.62-58.06-74.48c-43.21,11.11-92.84,17.26-142.18,16.9C525.68,896.06,480.11,890.09,440.09,877.25Z"/><path class="cls-8" d="M368.53,836.27h0a369.49,369.49,0,0,0,150.77,49.4c104.26,8.65,192.88-7.43,257-36.37h0c3.77-1.7,7.46-3.47,11.06-5.26a37.63,37.63,0,0,1,40,59.34q78.38,41.57-81,169.19-194.07-33-304.91-135.71-62-48.87-111.91,27.92-125.27,27.87,55.81-84-161.48,22.74-16.88-44.49"/><path class="cls-3" d="M286.42,964.24c0,.64,0,.36,0-.19Zm545-114.93a8.07,8.07,0,0,1-.75,10.93M438.71,876.81a378.06,378.06,0,0,1-70.59-31.45q-61.65,28.8-60.13,32.81,1.92,5.08,76.32-5.39h0a8.05,8.05,0,0,1,5.34,14.82q-78.6,48.54-98.3,69.95a56.14,56.14,0,0,0-3.79,4.48q10.1,1.37,37.13-4.43,25.92-38.55,55.93-46,31.78-7.94,65.88,18.93h0l.51.44q54.44,50.46,129.44,83.84,73.86,32.87,167.77,49.23,75.78-61.15,94.87-101,16.9-35.34-15.43-52.49h0a7.7,7.7,0,0,1-1.2-.78,8,8,0,0,1-1.39-11.29,29.61,29.61,0,0,0,6.24-19.55v0a29.62,29.62,0,0,0-7.68-18.55l-.39-.38a29.44,29.44,0,0,0-29.05-8.26c-2.09,1-3.8,1.87-4.81,2.35h0c-2,.93-3.88,1.83-5.72,2.66h0c-34,15.36-74.74,27.17-120.91,33.69-42.43,6-89.45,7.58-140,3.39v0h-.13A379,379,0,0,1,438.71,876.81ZM368.53,828.2h0a8,8,0,0,1,4.51,1.38A361.79,361.79,0,0,0,520,877.65v0c49.42,4.09,95.25,2.58,136.5-3.26C701.05,868.06,740.3,856.71,773,842l.08,0,.11,0c1.84-.83,3.61-1.65,5.27-2.45h0c2.56-1.21,4.21-2,5.37-2.59a7.91,7.91,0,0,1,1.37-.53h0A45.83,45.83,0,0,1,831,848.85l.4.46a45.53,45.53,0,0,1,12,28.75v.23a45.65,45.65,0,0,1-4.8,22.37q36.54,24.26,15,69.26-21,44-102.12,108.92a8,8,0,0,1-6.37,1.67h0q-98-16.68-175.23-51T436.35,943q-27.8-21.82-51.88-15.83-24.89,6.21-48.12,41.94a8,8,0,0,1-5.13,3.5q-34.26,7.62-47.65,5.06h0q-13.43-2.55-13.2-13.79.15-7.47,9.15-17.27,16.89-18.36,71.81-53.87-53.34,4.35-58.39-8.93Q286,865.74,365.15,829a8.09,8.09,0,0,1,3.38-.74Z"/><path class="cls-6" d="M831.91,906q12.93-45.4-20.08-60.65a167.73,167.73,0,0,0-15.9,7.32q33.51,16.49,10.23,51.81,5.58,5.46-5.66,21.27,65.87-6-8.15,95.1c8.77-4.79,19.83-11.21,27.2-15.83q60.57-67.35,12.36-99"/><path class="cls-3" d="M827,884.84a8.05,8.05,0,1,1,15.89,2.65q-4.7,27.74-41,35.71-32.39,7.11-91.94-1.88a8.07,8.07,0,1,1,2.4-16q56.63,8.55,86.14,2.08,25.6-5.62,28.48-22.59"/><path class="cls-3" d="M436.25,1032.05a8,8,0,0,1,16,1.45q-7.09,78.7-17.59,129Q424,1214,409.42,1237a8,8,0,1,1-13.62-8.58q13-20.55,23.11-69.13,10.33-49.61,17.34-127.22"/><path class="cls-9" d="M431.7,1134.73q75.6-20.36,126.14-119.7a506.91,506.91,0,0,1-54.8-30.6q-17.84,58.3-61.94,80.32-4.2,39.13-9.4,70"/><path class="cls-3" d="M506.58,1100.47q-33,31.33-72.8,42h0a7.91,7.91,0,0,1-3.4.16,8.05,8.05,0,0,1-6.62-9.27q2.6-15.42,4.91-32.67,2.29-17.06,4.38-36.42a8.07,8.07,0,0,1,4.47-6.79,99.77,99.77,0,0,0,34.76-28.79q14.48-18.76,22.92-46.17a7.86,7.86,0,0,1,1.06-2.49,8.07,8.07,0,0,1,11.14-2.44q12.86,8.28,26.17,15.72T561,1007.61l.52.24A8.07,8.07,0,0,1,565,1018.7q-25.89,50.86-58.46,81.77m-64.85,22.6q28.86-10.66,53.75-34.28,28.18-26.74,51.39-70.16-10.73-5.39-21.14-11.2c-6.27-3.49-12.38-7.08-18.31-10.72q-8.76,24.16-22.4,41.87a116.12,116.12,0,0,1-36.37,31.33q-1.9,17.19-4,33Q443.22,1113.38,441.73,1123.07Z"/><path class="cls-8" d="M790.79,1131.87q83.94-23.25,62.48-70,39.59-9.87,31.62,52.34,12.09,23.94,5,52,29.93,57.43,43.44,115.81-34,24.3-135.7,50.67-74.54,27.48-131.19,67a345,345,0,0,1-289.59-25.85c64.22-4.19,79.14-59.38,25.77-141.13q17.16-27.14,29.1-98,60.46,30,240.14,21.12,51.85-5.89,65.25,24c5.83-1.09,28.89-5.36,31.66-6,.37-19.06,2.32-33.22,22-42"/><path class="cls-3" d="M435.47,1127.61a8.07,8.07,0,0,1,4.17,8.45m385.46-7.85a213.6,213.6,0,0,1-31.57,11.24c-7.4,3.43-11.43,7.68-13.6,12.75-2.42,5.66-2.95,12.88-3.13,21.24a8.09,8.09,0,0,1-6.35,8.36c-2,.43-20.78,3.93-29.25,5.51l-2.53.47a8,8,0,0,1-8.93-4.61q-5.31-11.85-18.44-16.69-14.53-5.36-38.57-2.61v0l-.51.05q-90.53,4.44-151-.87-52.65-4.62-83.41-16.78a489.19,489.19,0,0,1-11.67,50.65q-6.49,21.84-14.13,35.61c19.47,30.83,29.46,58.16,30.93,80.64.81,12.47-1,23.55-5.15,33a54.12,54.12,0,0,1-20.29,23.69A69.1,69.1,0,0,1,401,1377.6a336.94,336.94,0,0,0,261.63,14.91A528.16,528.16,0,0,1,723.88,1356a649.94,649.94,0,0,1,71-30.86v0a6,6,0,0,1,.75-.24q50.48-13.1,84-25.61,28.63-10.68,44.6-20.82a457.68,457.68,0,0,0-16-51.77A513,513,0,0,0,882.7,1170v0a8,8,0,0,1-.67-5.67,71,71,0,0,0,2.12-24.34,61.49,61.49,0,0,0-6.46-22.1h0a8.09,8.09,0,0,1-.79-4.63q3.63-28.31-2.85-39c-2-3.38-5.32-5.21-9.83-5.5q4.72,18.6-5.63,34Q848.74,1117.36,825.1,1128.21Zm-36.45-4.12a198.92,198.92,0,0,0,29.77-10.51q19.46-8.94,26.81-19.85,6.54-9.72,3.2-21.82a44.45,44.45,0,0,0-2.48-6.68,8,8,0,0,1,4-10.66,7.5,7.5,0,0,1,1.42-.5h0q25.54-6.36,36.53,11.81,9,14.89,5.29,47a77.36,77.36,0,0,1,7,25.6,85.79,85.79,0,0,1-1.79,26.76,526.18,526.18,0,0,1,24.83,55.93,468.8,468.8,0,0,1,17.93,59.15,8,8,0,0,1-3.45,8.54q-17.79,12.64-52.51,25.61-34.14,12.74-85,26a637.57,637.57,0,0,0-69,30A514.82,514.82,0,0,0,671,1406.31a7.9,7.9,0,0,1-2.52,1.17,353.1,353.1,0,0,1-295.71-26.67,8.06,8.06,0,0,1,3.54-15h0c13.39-.87,24.28-4.12,32.45-9.44a38.14,38.14,0,0,0,14.29-16.68c3.16-7.13,4.47-15.68,3.83-25.51-1.36-20.82-11.36-46.94-31-77.09a8,8,0,0,1-.06-8.66h0q8-12.62,14.93-36,7.13-24,13-58.95a8.08,8.08,0,0,1,11.72-5.8q28.83,14.21,87.19,19.34,59.51,5.22,148.41.88,27.72-3.13,45.79,3.51,16.21,6,24.57,19.55c5.76-1.07,13.86-2.59,19.49-3.66.41-7.8,1.41-14.86,4.18-21.34,3.78-8.85,10.44-16,22.41-21.38A8.24,8.24,0,0,1,788.65,1124.09Z"/><path class="cls-6" d="M924.23,1248.75q5.22,16.62,9.07,33.31-16.81,12-50.27,24.58-6.33-3.6-13.23-7.85,57.56-1.17,19.16-123.11a519.47,519.47,0,0,1,35.27,73.07"/><path class="cls-3" d="M435.47,1127.61a8.07,8.07,0,0,1,4.17,8.45m385.46-7.85a213.6,213.6,0,0,1-31.57,11.24c-7.4,3.43-11.43,7.68-13.6,12.75-2.42,5.66-2.95,12.88-3.13,21.24a8.09,8.09,0,0,1-6.35,8.36c-2,.43-20.78,3.93-29.25,5.51l-2.53.47a8,8,0,0,1-8.93-4.61q-5.31-11.85-18.44-16.69-14.53-5.36-38.57-2.61v0l-.51.05q-90.53,4.44-151-.87-52.65-4.62-83.41-16.78a489.19,489.19,0,0,1-11.67,50.65q-6.49,21.84-14.13,35.61c19.47,30.83,29.46,58.16,30.93,80.64.81,12.47-1,23.55-5.15,33a54.12,54.12,0,0,1-20.29,23.69A69.1,69.1,0,0,1,401,1377.6a336.94,336.94,0,0,0,261.63,14.91A528.16,528.16,0,0,1,723.88,1356a649.94,649.94,0,0,1,71-30.86v0a6,6,0,0,1,.75-.24q50.48-13.1,84-25.61,28.63-10.68,44.6-20.82a457.68,457.68,0,0,0-16-51.77A513,513,0,0,0,882.7,1170v0a8,8,0,0,1-.67-5.67,71,71,0,0,0,2.12-24.34,61.49,61.49,0,0,0-6.46-22.1h0a8.09,8.09,0,0,1-.79-4.63q3.63-28.31-2.85-39c-2-3.38-5.32-5.21-9.83-5.5q4.72,18.6-5.63,34Q848.74,1117.36,825.1,1128.21Zm-36.45-4.12a198.92,198.92,0,0,0,29.77-10.51q19.46-8.94,26.81-19.85,6.54-9.72,3.2-21.82a44.45,44.45,0,0,0-2.48-6.68,8,8,0,0,1,4-10.66,7.5,7.5,0,0,1,1.42-.5h0q25.54-6.36,36.53,11.81,9,14.89,5.29,47a77.36,77.36,0,0,1,7,25.6,85.79,85.79,0,0,1-1.79,26.76,526.18,526.18,0,0,1,24.83,55.93,468.8,468.8,0,0,1,17.93,59.15,8,8,0,0,1-3.45,8.54q-17.79,12.64-52.51,25.61-34.14,12.74-85,26a637.57,637.57,0,0,0-69,30A514.82,514.82,0,0,0,671,1406.31a7.9,7.9,0,0,1-2.52,1.17,353.1,353.1,0,0,1-295.71-26.67,8.06,8.06,0,0,1,3.54-15h0c13.39-.87,24.28-4.12,32.45-9.44a38.14,38.14,0,0,0,14.29-16.68c3.16-7.13,4.47-15.68,3.83-25.51-1.36-20.82-11.36-46.94-31-77.09a8,8,0,0,1-.06-8.66h0q8-12.62,14.93-36,7.13-24,13-58.95a8.08,8.08,0,0,1,11.72-5.8q28.83,14.21,87.19,19.34,59.51,5.22,148.41.88,27.72-3.13,45.79,3.51,16.21,6,24.57,19.55c5.76-1.07,13.86-2.59,19.49-3.66.41-7.8,1.41-14.86,4.18-21.34,3.78-8.85,10.44-16,22.41-21.38A8.24,8.24,0,0,1,788.65,1124.09Z"/><path class="cls-9" d="M886.2,1097.59a157.75,157.75,0,0,1-1.31,16.63q12.09,23.94,5,52l.18.34q-21.54,20.64-81.13,42.2c60.7,33.37,2.82,102.86-43.88,56.55-14.55,66.32-112.07,20.75-64.69-29.41q-158.08,31.78-289.83-18.74,3.09-7.28,6-16.2l0-.11.09-.29.08-.22q2.52-7.74,4.44-15.29h0V1185q201.27,13,315.93-5.13v0l.8-.15q16-2.55,30.31-5.72l.55-.11h0q101.93-22.64,117.45-76.31"/><path class="cls-3" d="M884.16,1140a59.77,59.77,0,0,0-3.21-14.49q-10.4,13.69-27.49,24.8Q823,1170,771,1181.63l-.51.14h0l-.58.15c-4.56,1-9.54,2-15,3q-7.38,1.4-15.78,2.73a9.48,9.48,0,0,1-1.11.22c-.24,0-.47,0-.72,0q-57.58,9-136.45,10.29-76.87,1.26-173.67-4.79l-.43,1.47c-.83,2.89-1.65,5.52-2.44,7.94l-.07.23h0l-.12.4c-1,3.12-2,6.06-3,8.8l-.09.23a461.56,461.56,0,0,0,128.31,26.59q71.25,4.61,148.94-11a8.06,8.06,0,0,1,7.93,13.31c-10.88,11.52-12.5,22.25-9,30.54,2.62,6.12,8,11.19,14.48,14.47a35.34,35.34,0,0,0,21.63,3.49c10.52-1.85,20.16-9.77,23.79-26.31h0a8,8,0,0,1,13.54-4c13.16,13,27,15.22,37.67,11.29a29.27,29.27,0,0,0,13.06-9.62,26.38,26.38,0,0,0,5.51-14.54c.55-10.32-5.56-21.91-21.93-30.9h0a8,8,0,0,1,1.13-14.63q29.16-10.54,49.1-20.92,17.41-9.06,27.16-17.65a69.79,69.79,0,0,0,1.73-22.7M894.24,1098c-.06,2.84-.21,5.54-.4,8.13-.15,1.92-.38,4.15-.68,6.66a77.19,77.19,0,0,1,7,25.61,86.34,86.34,0,0,1-2.08,28,8.07,8.07,0,0,1-2.76,6.2q-11.64,11-32.63,22a378.23,378.23,0,0,1-36.59,16.3c12.71,11.1,17.57,24.3,16.92,36.65a42.61,42.61,0,0,1-8.8,23.5,45.46,45.46,0,0,1-20.3,15c-13.21,4.88-29.32,3.88-44.89-6.9-7,16.08-19.46,24.32-32.93,26.68a51.62,51.62,0,0,1-31.67-5c-9.74-4.91-17.87-12.79-22-22.54-3.93-9.2-4.41-19.84.45-30.93q-69.86,12-134.54,7.81a476.47,476.47,0,0,1-140.69-30.44,8.09,8.09,0,0,1-4.67-10.42,8.41,8.41,0,0,1,.37-.81c.8-1.94,1.68-4.21,2.64-6.79s1.91-5.4,2.83-8.22l.11-.29,0-.08v0h0l.07-.22c.88-2.72,1.68-5.23,2.31-7.44s1.3-4.59,2-7.23h0l0-.08a8.08,8.08,0,0,1,8.86-6.15q100.19,6.45,178.47,5.17t135.22-10.24l.48-.07.13,0,.15,0h0q7.62-1.21,15.38-2.67c4.64-.88,9.47-1.87,14.41-2.95a8.27,8.27,0,0,1,1.31-.29q49-11,77-29.11,26.85-17.44,33.78-41.42a8.05,8.05,0,0,1,15.77,2.68Z"/><path class="cls-6" d="M886.2,1097.59a157.54,157.54,0,0,1-1.31,16.63q12.09,23.92,5,52l.19.34a110.18,110.18,0,0,1-18.87,14,67.32,67.32,0,0,1-6.33-2.74c31.44-49.49-120,52-301.37,18.95l11.65-6.43q95.51-.06,162-10.55v0l.8-.15q16-2.57,30.32-5.71l.54-.12h0q101.94-22.62,117.46-76.31"/><path class="cls-3" d="M756.24,1210.1a8.06,8.06,0,1,1,15.84-3q4.8,25.23,3.35,44.54-1.51,20.13-9.89,34.16a8.05,8.05,0,1,1-13.82-8.26q6.38-10.69,7.62-27.1,1.3-17.21-3.1-40.31"/><path class="cls-3" d="M697.12,1255.09a8.06,8.06,0,1,1-14.07-7.88,98.85,98.85,0,0,1,20.62-25.89,81.61,81.61,0,0,1,27.11-16.14,8,8,0,1,1,5.24,15.2,65.41,65.41,0,0,0-21.68,13,82.46,82.46,0,0,0-17.22,21.72"/><path class="cls-10" d="M715.14,1270.69a9.56,9.56,0,0,0,10.17,4.74c11.21-2.17,22.66-39,24.19-48.92-8.58,5.83-41.46,31.41-34.36,44.18"/><path class="cls-3" d="M718.78,1276.17a11.17,11.17,0,0,1-5-4.7c-3-5.48.06-12.67,5.62-19.82,8.78-11.28,23.82-22.79,29.25-26.46h0a1.55,1.55,0,0,1,1.15-.26,1.6,1.6,0,0,1,1.34,1.83c-.94,6.12-5.6,22.33-11.64,34.55-4.07,8.21-8.86,14.74-13.83,15.7a11.15,11.15,0,0,1-6.84-.84m-2.24-6.26a8,8,0,0,0,8.48,3.93c3.8-.73,7.89-6.57,11.54-14a155.5,155.5,0,0,0,10.56-29.7c-6.64,4.93-18.08,14.27-25.21,23.45C717.08,1259.83,714.27,1265.82,716.54,1269.91Z"/><path class="cls-10" d="M813.26,1253.58a7.33,7.33,0,0,1-6.83,5.22c-8.74.22-23.38-25.43-26.17-32.6,7.38,2.94,36.2,16.65,33,27.38"/><path class="cls-3" d="M809.71,1256a5.74,5.74,0,0,0,2-2.82l0-.08c1-3.24-2-7.11-6.46-10.82l-.1-.08c-6.48-5.37-15.84-10.22-21.71-12.89a120.4,120.4,0,0,0,12.3,19.46c3.89,4.84,7.81,8.47,10.65,8.4a5.74,5.74,0,0,0,3.32-1.17m5.06-1.9v0a8.88,8.88,0,0,1-8.3,6.24c-4,.11-8.77-4.05-13.23-9.6-6.56-8.18-12.75-19.57-14.47-24a1.6,1.6,0,0,1,.92-2.08,1.74,1.74,0,0,1,1.17,0c4.68,1.86,17.89,8,26.35,15l.09.09c5.41,4.51,8.93,9.47,7.51,14.22Z"/><path class="cls-3" d="M786,1211.65a8.05,8.05,0,1,1,2.9-15.84,161,161,0,0,1,17.31,4.06,48.72,48.72,0,0,1,12.1,5.19,8,8,0,0,1-8.77,13.5,33.88,33.88,0,0,0-8-3.3,148.38,148.38,0,0,0-15.54-3.61"/><path class="cls-9" d="M714.82,1296.39q25.56,6.73,40.36-10.05,1.35,46.68-1.51,94.62a142.93,142.93,0,0,1-61.52-13.12q20.43-26.14,22.67-71.45"/><path class="cls-3" d="M739.62,1305.07a48.39,48.39,0,0,1-17.41.92,158.92,158.92,0,0,1-6.48,33.35,110.46,110.46,0,0,1-11.3,24.91,133.4,133.4,0,0,0,19.34,5.67,136.87,136.87,0,0,0,22.29,2.86q1.05-20.12,1.38-39.58.24-15.53,0-31a41.72,41.72,0,0,1-7.85,2.83m-22.75-16.47c7.18,1.89,13.5,2.16,18.9.82a26.13,26.13,0,0,0,13.38-8.4,8,8,0,0,1,14.06,5.1h0q.67,23.46.3,47.34-.39,24.12-1.82,48a8,8,0,0,1-8.43,7.57,153,153,0,0,1-32.85-3.32,150.55,150.55,0,0,1-31.62-10.53,8.06,8.06,0,0,1-2.9-12.41,89.8,89.8,0,0,0,14.44-28.27,151.94,151.94,0,0,0,6.43-38.47,8.06,8.06,0,0,1,8.42-7.67,8.41,8.41,0,0,1,1.68.26Z"/><path class="cls-2" d="M899.38,1300.11h0q-37.26,15.9-101.76,32.62-14.43,5.32-28.18,11.09-5.74,77.7,50.32,74.93,96.54-8.88,64.91-48.18-7-31,14.72-70.46"/><path class="cls-3" d="M820.8,1426.73l-.33,0m32.38-118.23q24.92-8,43.22-15.79A8.07,8.07,0,0,1,906.45,1304q-10.31,18.71-13.73,35.11a70.3,70.3,0,0,0-.57,28,43.78,43.78,0,0,1,7,12.92q3.78,11.85-2.91,21.48-5.78,8.31-19.47,14-19.2,7.89-56,11.31l-.68.06q-32.54,1.62-47.67-20.9-14.13-21.06-11.07-62.65h0a8,8,0,0,1,5-6.86c4.66-2,9.37-3.88,14.08-5.73s9.58-3.72,14.41-5.49v0a6,6,0,0,1,.75-.24Q827.58,1316.63,852.85,1308.54Zm30.45,6.59q-11.79,4.35-25.53,8.75-25.39,8.14-57.6,16.5c-4.71,1.74-9.36,3.51-13.89,5.29-3.07,1.21-6.12,2.43-9.11,3.66q-1.59,32.33,8.66,47.6,10,14.92,33.5,13.78,34.36-3.18,51.35-10.18c6.16-2.53,10.29-5.3,12.35-8.27a8.05,8.05,0,0,0,.83-7.4,30.32,30.32,0,0,0-5.47-9.24,8.05,8.05,0,0,1-1.63-3.51,85.12,85.12,0,0,1,.18-36.29A124.28,124.28,0,0,1,883.3,1315.13Z"/><path class="cls-5" d="M774.4,1392.32q11.24,28.13,45.35,26.43a270.82,270.82,0,0,0,38.7-6,50.12,50.12,0,0,0-84.05-20.47"/><path class="cls-3" d="M820.8,1426.73l-.33,0m32.38-118.23q24.92-8,43.22-15.79A8.07,8.07,0,0,1,906.45,1304q-10.31,18.71-13.73,35.11a70.3,70.3,0,0,0-.57,28,43.78,43.78,0,0,1,7,12.92q3.78,11.85-2.91,21.48-5.78,8.31-19.47,14-19.2,7.89-56,11.31l-.68.06q-32.54,1.62-47.67-20.9-14.13-21.06-11.07-62.65h0a8,8,0,0,1,5-6.86c4.66-2,9.37-3.88,14.08-5.73s9.58-3.72,14.41-5.49v0a6,6,0,0,1,.75-.24Q827.58,1316.63,852.85,1308.54Zm30.45,6.59q-11.79,4.35-25.53,8.75-25.39,8.14-57.6,16.5c-4.71,1.74-9.36,3.51-13.89,5.29-3.07,1.21-6.12,2.43-9.11,3.66q-1.59,32.33,8.66,47.6,10,14.92,33.5,13.78,34.36-3.18,51.35-10.18c6.16-2.53,10.29-5.3,12.35-8.27a8.05,8.05,0,0,0,.83-7.4,30.32,30.32,0,0,0-5.47-9.24,8.05,8.05,0,0,1-1.63-3.51,85.12,85.12,0,0,1,.18-36.29A124.28,124.28,0,0,1,883.3,1315.13Z"/><path class="cls-2" d="M396.26,1384.24h0A344.94,344.94,0,0,0,562,1419.89h0q4.58,140.4-147,129.83-45.76-3.18-23.52-41.17,9.39-43.2,4.7-124.31"/><path class="cls-3" d="M475.25,1420.3a353.34,353.34,0,0,1-70.26-23q1.47,32.67.49,58.87-1.22,31.93-6,54.12h0a8,8,0,0,1-.92,2.38q-8.76,14.94-5.19,21.2,3.74,6.56,22.3,7.85,72.44,5,106.63-25.17,31.83-28.11,31.88-88.37a353.41,353.41,0,0,1-78.88-7.84m-84.7-41.77h0a8.07,8.07,0,0,1,9.79-1.25,337.3,337.3,0,0,0,161.41,34.56H562v0h0a8.08,8.08,0,0,1,8.08,8.08v.46q2.17,73.43-37.2,108.21t-118.37,29.2q-27.21-1.89-35.23-15.91t4.62-36.16q4.33-20.7,5.46-50.12,1.16-30.63-1.18-70.88a8.06,8.06,0,0,1,2.35-6.14Z"/><path class="cls-4" d="M396.26,1384.24h0a345.41,345.41,0,0,0,58.26,22.56A47.47,47.47,0,0,1,396,1478.17q3.47-37.93.23-93.93"/><path class="cls-3" d="M333.48,1354.74a8.07,8.07,0,1,1,13.94-8.14q7.18,12.29,18,16.35,11.26,4.21,27.41.26a8.05,8.05,0,1,1,3.79,15.65q-20.92,5.12-36.81-.83-16.31-6.12-26.34-23.29"/><path class="cls-11" d="M1050.27,1249.36Q985,1258.83,963,1234q-53-76.1-54.74-156.53,3.22-40.52,105.86-2.71,102.15,149.7,36.19,174.62"/><path class="cls-3" d="M997.18,1242.3q20.28,3.57,51.06-.79a38.62,38.62,0,0,0,7.36-3.85q10.88-7.42,12.28-22.29,1.57-16.75-8.26-42.76-14-37-50.74-91.19-48.11-17.49-72.39-16.87-19.05.5-20.21,13.36a248,248,0,0,0,14.1,76.24q13.26,37.89,39,75,9.12,9.9,27.78,13.19m54.23,15q-33.93,4.92-57,.85-24.57-4.34-37.47-18.89a7.72,7.72,0,0,1-.58-.73h0q-27.08-38.89-41.15-79.14a263.58,263.58,0,0,1-15-81.85c0-.26,0-.53,0-.79h0q2.18-27.46,35.93-28.34,28-.72,80.75,18.7a8,8,0,0,1,4,3.22q38.88,57,53.84,96.54,11.13,29.43,9.2,50-2.12,22.41-19.22,34.08a54.59,54.59,0,0,1-11.58,6,8,8,0,0,1-1.7.43Z"/><path class="cls-3" d="M996.9,1243.89q20.6,3.63,51.74-.8a41.51,41.51,0,0,0,5.72-2.74c-.82.13-1.67.24-2.53.35q-16.18,2-40.75-1.15c-.25,0-.49,0-.74-.08-15.58-2.72-29.35-14.55-42.35-35.18-12.26-19.45-24.08-47.09-36.38-82.64-6.5-18.77-10.49-33.47-11.05-44.54a42,42,0,0,1,.69-10.75c-.48.29-.93.58-1.36.89q-4.6,3.45-5.23,10.56a249.94,249.94,0,0,0,14.2,76.87q13.33,38.14,39.26,75.42,9.5,10.38,28.78,13.79m54.28,11.86q-33.69,4.88-56.5.86-24-4.23-36.55-18.36c-.16-.19-.32-.39-.46-.59h0q-26.94-38.72-40.95-78.75a262.36,262.36,0,0,1-14.91-81.35v-.63h0q1-13,10.43-20,8.65-6.42,24-6.82a6.44,6.44,0,0,1,2.85,12.28h0c-4.3,2-6,6.63-5.61,14.13.48,9.71,4.23,23.3,10.35,41,12,34.6,23.39,61.37,35.11,80,11,17.41,21.93,27.28,33.62,29.31l.19,0q22.8,2.9,37.62,1.09,13.54-1.65,19.33-7.09a6.45,6.45,0,0,1,10.57,6.62h0a41,41,0,0,1-10.17,17,48.57,48.57,0,0,1-17.52,11A6.64,6.64,0,0,1,1051.18,1255.75Z"/><path class="cls-12" d="M1003.7,1183.34q24.43,4.28,44.33.45s48.55-41,150.18-117.18c19.32-14.46,27.65-26.56,20.82-42.52l-26.69-50.22q-22.5-39.2-50.68-12.67-126,115.38-166,144.31-5.4,27.33,28.07,77.83"/><path class="cls-9" d="M1003.7,1183.34q24.43,4.28,44.33.45s3.9-3.3,11.81-9.76q-9.67-3-27.39-11-28.17-26.19-37.4-72.58-11.43,9.23-19.42,15-5.4,27.33,28.07,77.83"/><path class="cls-3" d="M1027,1192a149,149,0,0,1-24.36-2.33h0a6.46,6.46,0,0,1-4.28-2.79q-17.12-25.85-24.43-46.09-7.62-21.15-4.59-36.52h0a6.42,6.42,0,0,1,2.55-4c2.76-2,5.67-4.19,8.7-6.53s6.44-5,10.11-8a6.46,6.46,0,0,1,10.71,3.49,150.16,150.16,0,0,0,13.37,39.64,106.33,106.33,0,0,0,21.32,28.76q8.27,3.72,14.45,6.18,6.56,2.63,11,4a6.43,6.43,0,0,1,2.38,11.21c-7.61,6.2-11.29,9.31-11.3,9.32h0a6.45,6.45,0,0,1-3.36,1.77A110.9,110.9,0,0,1,1027,1192m-19.42-14.6a132.17,132.17,0,0,0,19.52,1.73,100.76,100.76,0,0,0,18.16-1.41l1.76-1.46-1.24-.49q-7.11-2.86-15.93-6.83a6.56,6.56,0,0,1-1.92-1.32,119.39,119.39,0,0,1-24.59-32.85A156.8,156.8,0,0,1,991,1102l-2.59,2q-3.76,2.92-6.83,5.2-1.38,11.3,4.4,27.32Q992.42,1154.23,1007.53,1177.42Z"/><path class="cls-11" d="M1186.07,1075.74l12.14-9.13c19.32-14.46,27.65-26.56,20.82-42.52l-26.69-50.22q-22.5-39.2-50.68-12.67-19.74,18.09-37.39,34h0a205.77,205.77,0,0,0,45.51,78.4q20.82,2.85,36.29,2.1"/><path class="cls-3" d="M1202.08,1071.76l-11.92,9a6.4,6.4,0,0,1-3.79,1.45,163,163,0,0,1-17.47-.13q-9.26-.54-19.8-2a6.39,6.39,0,0,1-4-2,212.16,212.16,0,0,1-47-80.86h0a6.44,6.44,0,0,1,1.82-6.69L1118.09,974l18.9-17.22.25-.25a55.87,55.87,0,0,1,10.4-7.9v0q10.51-6,20.75-4.12,10,1.86,18.78,11.22a78.51,78.51,0,0,1,10.6,14.66l.26.45,26.69,50.22h0l.24.5c4.25,9.93,3.75,18.75-.85,27.38-4.14,7.75-11.66,15-22,22.81m-18.27-2.38,10.55-7.91c8.92-6.7,15.25-12.69,18.39-18.59,2.63-4.91,2.91-10,.51-15.88l-26.63-50.1,0,0a66.14,66.14,0,0,0-8.82-12.29q-5.91-6.28-11.77-7.39c-3.72-.69-7.72.18-12,2.62h0a43.85,43.85,0,0,0-8,6.08l-.4.35-18.91,17.28-15.08,13.69a199,199,0,0,0,41.27,70.34q8.86,1.15,16.66,1.61C1174.69,1069.45,1179.43,1069.52,1183.81,1069.38Z"/><path class="cls-3" d="M1185.79,1046.72a4.84,4.84,0,1,1-1.85-9.5,170.75,170.75,0,0,1,20.54-2.89,89.32,89.32,0,0,1,17,.2,4.84,4.84,0,1,1-1.13,9.61,80.42,80.42,0,0,0-15.18-.16,164,164,0,0,0-19.36,2.74"/><path class="cls-2" d="M951.71,1216.85q-41.93-68-43.49-139.4,1.28-16,18.18-19.81-23.92-30.35-82.73-86-8.83,16.15-25.86,35.3,17.07,25.74,35.46,54.93,33.81-8.43,32.93,35.71a157.75,157.75,0,0,1-1.31,16.63q12.09,23.94,5,52l.18.34a513.91,513.91,0,0,1,31.15,72.79,19.78,19.78,0,0,0,30.51-22.53"/><path class="cls-3" d="M927.57,1145.61a295,295,0,0,0,30.82,66.74,7.66,7.66,0,0,1,.89,1.76,27.67,27.67,0,0,1-9.11,31.43l-.51.42a27.9,27.9,0,0,1-33.32-.14h0a8,8,0,0,1-2.79-3.88q-6-17.9-13.73-35.88-7.58-17.73-16.94-35.73h0a8,8,0,0,1-.86-6,71,71,0,0,0,2.12-24.34,61.49,61.49,0,0,0-6.46-22.1h0a8,8,0,0,1-.8-4.6c.32-2.57.61-5.33.84-8.35s.37-5.37.41-7.47q.36-18.81-5.69-25.38-5-5.4-17.28-2.34h0a8.08,8.08,0,0,1-8.74-3.53q-8.7-13.83-18-28.23-8.82-13.68-17.13-26.23a8.06,8.06,0,0,1,.48-10.13q8.31-9.35,14.5-17.79a143,143,0,0,0,10.31-16h0a7.86,7.86,0,0,1,1.22-1.67,8,8,0,0,1,11.36-.32Q879,994,899.55,1015.38q21,21.87,33.18,37.27h0a8.06,8.06,0,0,1-4.6,12.83q-10.93,2.43-11.84,12.41a246.42,246.42,0,0,0,11.29,67.71m16.78,74.64a310.5,310.5,0,0,1-32.17-69.85,262.33,262.33,0,0,1-12-72.8c0-.26,0-.53,0-.79h0q1.23-15.52,13-22.62-10.3-12.17-25.2-27.65-18.15-18.85-42.51-42.13c-1.88,2.92-3.93,5.9-6.14,8.91-3.4,4.66-7.21,9.43-11.37,14.31q7,10.62,14.09,21.61t15.12,23.68q17.32-2.49,27.21,8.21,10.39,11.28,9.9,36.61c-.06,2.94-.2,5.76-.4,8.42-.15,1.92-.38,4.15-.68,6.66a77.19,77.19,0,0,1,7,25.61,85.73,85.73,0,0,1-1.79,26.75q8.76,17.05,16.26,34.55,7.3,17.07,13.24,34.36a11.44,11.44,0,0,0,5.15,1.23,11.71,11.71,0,0,0,7-2.29l.35-.24a11.9,11.9,0,0,0,3.94-12.54Z"/><path class="cls-9" d="M830.28,991.91q-5.56,7.27-12.47,15,12.48,18.84,25.68,39.52a38.23,38.23,0,0,0-13.21-54.56"/><path class="cls-3" d="M818.17,994.16c2.13-2.57,4-5,5.7-7.14h0a8.05,8.05,0,0,1,10.31-2.15,46.25,46.25,0,0,1,16,66h0a8,8,0,0,1-13.5-.12c-4.18-6.55-8.51-13.27-13-20.1q-5.79-8.93-12.66-19.28h0a8,8,0,0,1,.68-9.77q2.93-3.29,6.38-7.46m13.71,8.73-1.28,1.56c-.81,1-1.71,2-2.68,3.17q4.3,6.55,9.33,14.3l4.38,6.75a30.1,30.1,0,0,0-5.94-21.64A29.23,29.23,0,0,0,831.88,1002.89Z"/><path class="cls-2" d="M203.25,1254.42h0c-8.93,155.45,84.41,197.79,173.57,119.4,2.85-.19,5.58-.48,8.24-.86q5.64,5.54,11.19,11.27c-49.86,91.1-242.84-11.43-343.86-34.6a58.52,58.52,0,0,1-44.22-60.46c5.21-82.58,145.59-65.06,195.07-34.76"/><path class="cls-3" d="M376.55,1365.77a8.15,8.15,0,0,1,3.74.78m-.16,15.1c-17,14.62-34.23,25.06-51,31.38,24.7-1.56,44.73-9.64,57-27.64l-1.14-1.16-2.78-2.78-.33,0h0Zm-168.94-17.78c-12-26-18.16-61-16.22-104.91-19.63-10.67-51.1-19.27-82.58-21.26-19.15-1.2-38.17.07-54.28,4.87-15.25,4.54-27.79,12.26-35,24a49.59,49.59,0,0,0-6.89,23.09,50.46,50.46,0,0,0,38.14,52.14h0c25.27,5.8,56.22,16.52,89.24,28,30.34,10.5,62.51,21.63,93.42,30C226.79,1390.75,218,1378.77,211.19,1363.87Zm-4.27-116.64a8.07,8.07,0,0,1,4.36,8.18c-2.42,43.22,3.23,77.19,14.54,101.77,8.73,19,20.81,32.24,35.06,39.71,14.09,7.39,30.57,9.2,48.25,5.34,19.82-4.33,41.13-15.78,62.37-34.45a8.05,8.05,0,0,1,5.05-2c1.31-.1,2.52-.19,3.62-.31h0c1.27-.14,2.54-.3,3.8-.48a8.09,8.09,0,0,1,6.94,2.43c1.74,1.71,3.56,3.53,5.48,5.47s3.91,4,5.64,5.75a8.05,8.05,0,0,1,1,10c-41.06,73.7-162.59,31.65-264.64-3.66-32.5-11.24-62.95-21.78-87.77-27.48l-.16,0h0a66.62,66.62,0,0,1-50.31-68.8,65.22,65.22,0,0,1,9.23-30.48c9.51-15.52,25.27-25.46,44.14-31.08,18-5.37,39-6.82,59.9-5.49C149.37,1223.88,185.71,1234.42,206.92,1247.23Z"/><path class="cls-4" d="M25.81,1250.88c32.76-29.91,103.58-24.82,150.12-8.82q-66.09,111.87-150.12,8.82"/><path class="cls-3" d="M505.77,496.07a8.05,8.05,0,0,1,14.14-7.7q19.77,36.21,40.72,60.47,20.55,23.77,42.1,35.86a8.07,8.07,0,0,1-7.89,14.08q-24-13.42-46.39-39.4-22-25.51-42.68-63.31"/><path class="cls-10" d="M531.42,523.26C416.69,736.4,606,772,594.5,589.22q-32.89-20.21-63.08-66"/><path class="cls-3" d="M493.22,682.24c-13-31.39-10-86.47,31.1-162.79h0a7.92,7.92,0,0,1,2.67-2.92,8,8,0,0,1,11.13,2.31,272.36,272.36,0,0,0,29.52,37.78l.46.44a154.94,154.94,0,0,0,30.46,25.2,8,8,0,0,1,4,6.44c3.71,58.95-13,96.81-34.41,114.4C554.89,714,539.77,717.47,526,713.77s-25.63-14.26-32.78-31.53m39.17-143.37C499.77,604,497.28,650,508.11,676.06c5.1,12.31,13.15,19.74,22.06,22.13s18.73-.1,27.74-7.52c17.48-14.36,31.16-46.2,28.76-96.88a175.61,175.61,0,0,1-30.22-25.61l-.42-.47A271.25,271.25,0,0,1,532.39,538.87Z"/><path class="cls-3" d="M855.12,500.8a8.06,8.06,0,1,1,13.44,8.9Q849,539.34,829,558.88q-20.32,19.92-41.2,29.43a8,8,0,0,1-6.69-14.64q18.26-8.32,36.59-26.27,18.71-18.33,37.38-46.6"/><path class="cls-10" d="M844.47,529.45c79.46,182.71-78.27,198.87-56.28,49.76q28.37-14.31,56.28-49.76"/><path class="cls-3" d="M851.82,655.74c10.38-20.1,11.54-56.86-9.67-110.83a220.52,220.52,0,0,1-20.37,20.73,147,147,0,0,1-26.16,18.75c-5.18,40.5,3.62,66.89,16.61,79.53,6.55,6.38,14.1,9,21,7.72s13.78-6.57,18.6-15.9m.21-129.1C880.49,592.3,879.11,638,866.15,663.12c-7.27,14.08-18.23,22.21-30.09,24.35s-24.61-1.83-35.06-12c-16.63-16.17-28-48.81-20.79-97.43a8.06,8.06,0,0,1,4.72-6.21,126.65,126.65,0,0,0,26.19-18.24,221.93,221.93,0,0,0,27-29.13A8.07,8.07,0,0,1,852,526.64Z"/><path class="cls-10" d="M715.35,712.83c14.94-1.24,27.43,2.35,27.9,8s-9.93,27.49-24.86,28.72S689.62,731,689.15,725.32s11.26-11.26,26.2-12.49"/><path class="cls-3" d="M732.51,722a47.81,47.81,0,0,0-16.35-1.17l-.14,0A48,48,0,0,0,700,724.7c-1.55.73-2.7-.69-2.75-.12v.2c.25,1.53,2.9,5.53,6.91,9.63s8.77,7.36,13.34,7.14l.53,0c4.38-.5,8.53-4.4,11.67-8.77l.31-.48c3.32-4.76,5.28-9.2,5.23-10.71v0c-.07-.87-1,1-2.69.51m-17.57-17.25a64.28,64.28,0,0,1,22,1.72c8.37,2.4,13.82,7.17,14.36,13.69l0,.66V721c0,4.51-3,13.13-8.1,20.46a6.17,6.17,0,0,1-.44.57c-5.55,7.75-13.68,14.74-23.72,15.58h-.33c-10.16.72-19.42-5.09-26.16-12S681.46,730.22,681.11,726l0-.28c-.4-6.41,4.16-11.89,11.92-15.59a64.33,64.33,0,0,1,21.68-5.34Z"/><path class="cls-3" d="M710.35,749.29a8,8,0,0,1,16.09.56q-.63,15.93-6.24,26.45a34.8,34.8,0,0,1-15.54,15.27q-9.54,4.7-22.71,4.18-27.44-1.05-72.69-25.22a8,8,0,0,1,7.58-14.2q42,22.41,65.68,23.33,9.11.36,15-2.54a19,19,0,0,0,8.47-8.39q3.87-7.25,4.35-19.44"/><path class="cls-3" d="M710.6,751.65a8.06,8.06,0,1,1,15.58-4.16c2.66,9.92,8,16.63,14.62,20.44A33.49,33.49,0,0,0,759.72,772a45.15,45.15,0,0,0,20.6-6.72A48.14,48.14,0,0,0,802,734.9a8.07,8.07,0,0,1,15.72,3.67A64.21,64.21,0,0,1,788.78,779a61.43,61.43,0,0,1-28,9.12,49.44,49.44,0,0,1-27.94-6.2c-10.21-5.89-18.34-15.83-22.19-30.23"/><path class="cls-2" d="M562.69,621.63c9.14,2.08,13.75,16.09,10.29,31.28s-13.68,25.83-22.83,23.75-13.75-16.1-10.29-31.29,13.68-25.83,22.83-23.74"/><path class="cls-2" d="M811.08,619.63c-7.71,3.23-9.61,16.23-4.25,29s16,20.58,23.67,17.35,9.62-16.23,4.25-29-16-20.57-23.67-17.35"/><path class="cls-9" d="M827.19,1267q-21.2,21.07-45.25,10.17,28.11,46.49,47.28,64.41,41.91-9.63,54.74-24.88-40.59-18.26-56.77-49.7"/><path class="cls-3" d="M803.52,1272.24q8.94-2,17.8-10.73a7.89,7.89,0,0,1,2.19-1.65,8.06,8.06,0,0,1,10.85,3.47,86.78,86.78,0,0,0,20.41,25.78q13.26,11.63,32.47,20.26h0a8.48,8.48,0,0,1,1.89,1.2,8,8,0,0,1,1,11.32q-7.62,9.06-22.94,16-14.38,6.54-36.15,11.54v0a8,8,0,0,1-7.28-2q-10.22-9.54-22.43-26.19-12.09-16.47-26.27-39.91h0a8.06,8.06,0,0,1,10.22-11.51q9.59,4.35,18.26,2.4m21.58,7.2a48.22,48.22,0,0,1-18.05,8.51,40.93,40.93,0,0,1-8.29,1q8.25,12.86,15.53,22.8a196.92,196.92,0,0,0,17.37,21,167.87,167.87,0,0,0,28.89-9.51,73.69,73.69,0,0,0,8.86-4.7,137.74,137.74,0,0,1-25.25-17.29A106.56,106.56,0,0,1,825.1,1279.44Z"/><path class="cls-6" d="M880.78,652.24C968,334.91,777.14,91,456,160.06,326.11,188,231.9,292.12,198.87,416.87,322.69,197.62,531.75,133.3,686.78,203.69c-4.29.3-7.6,1.71-9.51,4.35-6.87,9.44,6.7,31,30.28,48.13s48.27,23.37,55.13,13.93c3.17-4.36,2-11.28-2.51-19.17C848.88,328.07,903,463.8,880.78,652.24"/><path class="cls-3" d="M900.26,408.83c15.62,72.65,12.8,156.12-11.63,245.22a6.68,6.68,0,0,1-.25.84c-3.27,9.37-1,20.53,1.7,33.53,1.87,9.1,3.91,19,4.62,30.31a90.35,90.35,0,0,1-.13,12.86c-3.27,39.5-32.73,78.2-82.41,108.08-48.36,29.06-116.26,50-197.88,55.17l-.21,0a660.16,660.16,0,0,1-95.41-1.14v0h-.13A378.84,378.84,0,0,1,179.36,549.77c-8-92.13,17.13-183.48,67.22-256C295,223.59,366.75,171,454.31,152.17c79.07-17,150.52-15.29,212.15,1.64,61.47,16.89,113.11,48.9,152.81,92.59s67.35,98.93,81,162.43m-27.16,241c23.72-86.5,26.49-167.39,11.39-237.65-13-60.65-39.43-113.38-77.16-154.92s-86.72-71.88-145.1-87.92C603.05,153.07,534.17,151.5,457.66,168,374.33,185.85,306,236,259.83,302.89c-48,69.5-72.09,157.1-64.38,245.49A362.63,362.63,0,0,0,520,877.64h0a642.52,642.52,0,0,0,93.07,1.14h.19c78.93-5,144.32-25.06,190.65-52.92,45.08-27.11,71.75-61.33,74.58-95.57a73.74,73.74,0,0,0,.13-10.6c-.64-10.19-2.55-19.5-4.3-28C871.17,676.39,868.49,663.3,873.1,649.82Z"/><path class="cls-3" d="M475.25,1420.3a353.34,353.34,0,0,1-70.26-23q1.47,32.67.49,58.87-1.22,31.93-6,54.12h0a8,8,0,0,1-.92,2.38q-8.76,14.94-5.19,21.2,3.74,6.56,22.3,7.85,72.44,5,106.63-25.17,31.83-28.11,31.88-88.37a353.41,353.41,0,0,1-78.88-7.84m-84.7-41.77h0a8.07,8.07,0,0,1,9.79-1.25,337.3,337.3,0,0,0,161.41,34.56H562v0h0a8.08,8.08,0,0,1,8.08,8.08v.46q2.17,73.43-37.2,108.21t-118.37,29.2q-27.21-1.89-35.23-15.91t4.62-36.16q4.33-20.7,5.46-50.12,1.16-30.63-1.18-70.88a8.06,8.06,0,0,1,2.35-6.14Z"/><path class="cls-3" d="M376.55,1365.77a8.15,8.15,0,0,1,3.74.78m-.16,15.1c-17,14.62-34.23,25.06-51,31.38,24.7-1.56,44.73-9.64,57-27.64l-1.14-1.16-2.78-2.78-.33,0h0Zm-168.94-17.78c-12-26-18.16-61-16.22-104.91-19.63-10.67-51.1-19.27-82.58-21.26-19.15-1.2-38.17.07-54.28,4.87-15.25,4.54-27.79,12.26-35,24a49.59,49.59,0,0,0-6.89,23.09,50.46,50.46,0,0,0,38.14,52.14h0c25.27,5.8,56.22,16.52,89.24,28,30.34,10.5,62.51,21.63,93.42,30C226.79,1390.75,218,1378.77,211.19,1363.87Zm-4.27-116.64a8.07,8.07,0,0,1,4.36,8.18c-2.42,43.22,3.23,77.19,14.54,101.77,8.73,19,20.81,32.24,35.06,39.71,14.09,7.39,30.57,9.2,48.25,5.34,19.82-4.33,41.13-15.78,62.37-34.45a8.05,8.05,0,0,1,5.05-2c1.31-.1,2.52-.19,3.62-.31h0c1.27-.14,2.54-.3,3.8-.48a8.09,8.09,0,0,1,6.94,2.43c1.74,1.71,3.56,3.53,5.48,5.47s3.91,4,5.64,5.75a8.05,8.05,0,0,1,1,10c-41.06,73.7-162.59,31.65-264.64-3.66-32.5-11.24-62.95-21.78-87.77-27.48l-.16,0h0a66.62,66.62,0,0,1-50.31-68.8,65.22,65.22,0,0,1,9.23-30.48c9.51-15.52,25.27-25.46,44.14-31.08,18-5.37,39-6.82,59.9-5.49C149.37,1223.88,185.71,1234.42,206.92,1247.23Z"/><path class="cls-13" d="M769.86,852.12Q853.5,822.35,885,741.21C715.9,979.71,170.12,811.4,198.84,416.93q-56.1,261.75,161.88,414.61,199.18,103.07,409.14,20.58"/><path class="cls-13" d="M739.1,1065.69q42.49-10.61,68-54.49-62.88,47.85-149.17-6.85-96.24-72.23-.4-94.78l.58-.14q23.82-5.68,43.6-11.3-4.89,8.4,4.2,21,35.93,15.32,106.47-17.5-127.77,13.53-62.65-19.36,41.13-16.26,47.38-32Q577,924,404.85,855.07,357,822.84,306.22,877.24q9.64,18.88,66.76,5.2-160.4,97.56-49,89Q385.36,880.15,449,943.64q125.4,105.54,290.08,122.05"/><path class="cls-13" d="M746.42,1072.56q26-25,73.66-54.35-26.1,48.26-57.48,71-25.11,9.87-68-4.49-153.57-49.43-139,47,14,17.6,110,15.5-98.88,24.75-217.94-9Q539.76,1064.31,555.8,1019q157,51.13,190.62,53.56"/><path class="cls-13" d="M503,984.42Q387.16,877.74,361.24,942.23q75.92-24.19,43,124.46-13.35,75.32-32.91,132.17h0q-5.76,33.21,3.46,55.91h0q52.07,128.18-30.52,88.34-10-2.56-13.25,9c5.15,38.8-38.08,53.55-93.72,24.75q50.16,70.44,133.78,1.88,110-27.27,34.72-141.12,32.72-110.07,37.06-189.6,36.21,13.31,60.2-63.6"/><path class="cls-13" d="M665.75,1364.25l.43-.89c.63-.64,1.26-1.29,1.86-1.95l0,0q18-19.67,22.61-55a48.88,48.88,0,0,1-26.25-31.92c-3.29-16.71-100.43-11.66-129.54,6-58.91,43.61-49.05,97,34,114.53q69.43,1.48,96.89-30.72M447.69,1138.17q107.87,32.49,213,10.2-108.75,11.13-96,42-61,48.69,118.47,39-17.85,4.92-33.64,9.11,16.29.36,21.59,6.66,9.24-1.26,21.07-3.3-11.41,32.11,22.14,61.82-.75,60.81-34.17,82.5l.33,1.41a129.43,129.43,0,0,1-19,12.37l4.94-.31q-5.61,1.75-11.19,3.34a87.28,87.28,0,0,1-30.38,7.62q-125.05,26.88-228.58-26.4,73.17-64.11,9.51-146.62,15.47-16.56,15.36-52.54Q419.06,1134.23,447.69,1138.17Z"/><path class="cls-13" d="M816.45,1327.7q-37.86,10.88-61.37,22.34-.15-16.39,3.55-68.4,17.64-21.6,31.82,9.3,20,30.09,26,36.76"/><path class="cls-13" d="M816.78,1213.77Q861.32,1182,889,1175.68q-11.6,24.33-44.49,43,20.55,37.78-5.5,55.48,1.57-44.14-22.19-60.38"/><path class="cls-13" d="M825,1340.39q-65.18-71.66-9-57.48,7.17,43.38,49.74,39.49-20.29,20.47-40.74,18"/><path class="cls-13" d="M719.27,1303.4a113.75,113.75,0,0,1,20.25-1.49q-2.82,22.36-7.64,37.13h0c-.8,2.43-1.63,4.7-2.51,6.81q-6,22.13,20.59,33.43-48.68,1.76-52.11-16,4.18-6,7.85-10.78,11.14-42.09,13.57-49.08"/><path class="cls-13" d="M244.44,1406.64q-21.75-35.54-29.44-54.4c-53.17-12.83-253.68-41.42-150-114.06a58.23,58.23,0,0,0-45.63,89.23q162.48,71.46,225.09,79.23"/><path class="cls-13" d="M562.13,1423.17q-64.61-7.05-118.25-11.52c63.67,46.22,35.85,119.2-14.49,132q125,21.89,132.74-120.44"/><path class="cls-13" d="M770.94,1343.19q29.17-18.63,57.37-5.5,2.81,68.37,50.24,63.48-37.93,26.83-91.85,8.6-12.74-48.7-15.76-66.58"/><path class="cls-13" d="M943.81,1112.56q-18.93-48.49-30.48-59-22.71,10.39-57-17.49-18.78,17.52.33,25.07,41.6,5.88,30.65,58.41,4.68,65.68,33.87,119.81,24.52,11.26,31.59-13.8,84.47,53.16,115.6,11,16.09-32.62-2.11-60-28.92,14.2-62.58,6.79-40.5-11.61-59.89-70.77"/><path class="cls-13" d="M1054.37,1183.74q-33.24,4.65-45.27.34,158.65-114.86,183.67-143.85-13-57.84-45.7-78.28,41.87-25.25,57.59,25.69,44.53,55.92-1,79.72-113.91,86.34-149.25,116.38"/><path class="cls-13" d="M221.87,353.16Q265.79,245.41,415.5,161.37q-27.42,15.84-50.25,26.78,7.14-5.9,14.8-12.77-97.6,53.43-63.48-80-35.67-.11-38.65,115.46A33.13,33.13,0,0,0,280.4,214c-57.83-.63-47.68-73.33,14.63-200.6q-117.1,163.47-73.16,339.75"/><path class="cls-13" d="M667.49,162.48a443.59,443.59,0,0,1,77.84,34.31q10.38,10.47,35.33,26.84,18.24,17.53,46.93,37.57a317.19,317.19,0,0,0-23.33-22.73q9,5.44,19.16,11.38-83.89-67.07,15-89.47-27.07-23.59-88.34,18c-7.26-34.06,33.44-56.75,123.79-67.94Q721,103.2,667.49,162.48"/><path class="cls-3" d="M677.23,157c41.62,12.88,78.51,32.89,110,58.89a318.12,318.12,0,0,1,78.48,97,375.51,375.51,0,0,0,7.79-203.12c-33.21-2.48-67.62,1.24-101.67,10A425.3,425.3,0,0,0,677.23,157M654.4,167.3a8.07,8.07,0,0,1-3-1.45,8,8,0,0,1-2-2.28,8.08,8.08,0,0,1,2.84-11c36.43-21.47,75.72-38.21,115.59-48.42,37.75-9.67,76-13.48,112.82-9.93h0a8.05,8.05,0,0,1,7,6,391.56,391.56,0,0,1-13,235.74,8,8,0,0,1-5.48,5.32l0,0h0a8.06,8.06,0,0,1-9.52-4.38c-19.75-42.88-47.67-79.66-82.69-108.6-34.31-28.36-75.48-49.22-122.51-61Z"/><path class="cls-3" d="M222.13,334.39c21.81-41.95,51.13-79.5,86.71-109.89a329.78,329.78,0,0,1,145.47-72.33c4-.85,8.11-1.69,12.39-2.5l1.47-.27a245.45,245.45,0,0,0-66.1-78.62Q357.91,36.27,294.41,17.25c-30.3,34.88-51.92,81.42-63.92,138.51-10.79,51.32-13.79,111.13-8.36,178.63m-5.2,38h0v0a8.06,8.06,0,0,1-8-7.18c-9.12-81.17-6.85-152.46,5.8-212.67,13-61.89,37-112.16,70.83-149.53A8.08,8.08,0,0,1,294,.31q69.57,20,118,57.79a261.85,261.85,0,0,1,75.31,93.32,8,8,0,0,1,1,2.77v.05h0a8,8,0,0,1-6.64,9.14c-4,.68-8,1.39-11.91,2.13s-7.79,1.52-12,2.43a313.73,313.73,0,0,0-138.35,68.8c-40.92,34.95-73.2,79.86-94.73,130.16A8.11,8.11,0,0,1,216.93,372.35Z"/><path class="cls-3" d="M286.42,964.24c0,.64,0,.36,0-.19Zm545-114.93a8.07,8.07,0,0,1-.75,10.93M438.71,876.81a378.06,378.06,0,0,1-70.59-31.45q-61.65,28.8-60.13,32.81,1.92,5.08,76.32-5.39h0a8.05,8.05,0,0,1,5.34,14.82q-78.6,48.54-98.3,69.95a56.14,56.14,0,0,0-3.79,4.48q10.1,1.37,37.13-4.43,25.92-38.55,55.93-46,31.78-7.94,65.88,18.93h0l.51.44q54.44,50.46,129.44,83.84,73.86,32.87,167.77,49.23,75.78-61.15,94.87-101,16.9-35.34-15.43-52.49h0a7.7,7.7,0,0,1-1.2-.78,8,8,0,0,1-1.39-11.29,29.61,29.61,0,0,0,6.24-19.55v0a29.62,29.62,0,0,0-7.68-18.55l-.39-.38a29.44,29.44,0,0,0-29.05-8.26c-2.09,1-3.8,1.87-4.81,2.35h0c-2,.93-3.88,1.83-5.72,2.66h0c-34,15.36-74.74,27.17-120.91,33.69-42.43,6-89.45,7.58-140,3.39v0h-.13A379,379,0,0,1,438.71,876.81ZM368.53,828.2h0a8,8,0,0,1,4.51,1.38A361.79,361.79,0,0,0,520,877.65v0c49.42,4.09,95.25,2.58,136.5-3.26C701.05,868.06,740.3,856.71,773,842l.08,0,.11,0c1.84-.83,3.61-1.65,5.27-2.45h0c2.56-1.21,4.21-2,5.37-2.59a7.91,7.91,0,0,1,1.37-.53h0A45.83,45.83,0,0,1,831,848.85l.4.46a45.53,45.53,0,0,1,12,28.75v.23a45.65,45.65,0,0,1-4.8,22.37q36.54,24.26,15,69.26-21,44-102.12,108.92a8,8,0,0,1-6.37,1.67h0q-98-16.68-175.23-51T436.35,943q-27.8-21.82-51.88-15.83-24.89,6.21-48.12,41.94a8,8,0,0,1-5.13,3.5q-34.26,7.62-47.65,5.06h0q-13.43-2.55-13.2-13.79.15-7.47,9.15-17.27,16.89-18.36,71.81-53.87-53.34,4.35-58.39-8.93Q286,865.74,365.15,829a8.09,8.09,0,0,1,3.38-.74Z"/><path class="cls-13" d="M441.59,1060.26q41.1-19.14,65.46-66,3.88,30.53-39.24,76.24-15.6,43.85,17.59,30.68l-53,29.52q9.21-70.44,9.22-70.44"/><path class="cls-3" d="M884.16,1140a59.77,59.77,0,0,0-3.21-14.49q-10.4,13.69-27.49,24.8Q823,1170,771,1181.63l-.51.14h0l-.58.15c-4.56,1-9.54,2-15,3q-7.38,1.4-15.78,2.73a9.48,9.48,0,0,1-1.11.22c-.24,0-.47,0-.72,0q-57.58,9-136.45,10.29-76.87,1.26-173.67-4.79l-.43,1.47c-.83,2.89-1.65,5.52-2.44,7.94l-.07.23h0l-.12.4c-1,3.12-2,6.06-3,8.8l-.09.23a461.56,461.56,0,0,0,128.31,26.59q71.25,4.61,148.94-11a8.06,8.06,0,0,1,7.93,13.31c-10.88,11.52-12.5,22.25-9,30.54,2.62,6.12,8,11.19,14.48,14.47a35.34,35.34,0,0,0,21.63,3.49c10.52-1.85,20.16-9.77,23.79-26.31h0a8,8,0,0,1,13.54-4c13.16,13,27,15.22,37.67,11.29a29.27,29.27,0,0,0,13.06-9.62,26.38,26.38,0,0,0,5.51-14.54c.55-10.32-5.56-21.91-21.93-30.9h0a8,8,0,0,1,1.13-14.63q29.16-10.54,49.1-20.92,17.41-9.06,27.16-17.65a69.79,69.79,0,0,0,1.73-22.7M894.24,1098c-.06,2.84-.21,5.54-.4,8.13-.15,1.92-.38,4.15-.68,6.66a77.19,77.19,0,0,1,7,25.61,86.34,86.34,0,0,1-2.08,28,8.07,8.07,0,0,1-2.76,6.2q-11.64,11-32.63,22a378.23,378.23,0,0,1-36.59,16.3c12.71,11.1,17.57,24.3,16.92,36.65a42.61,42.61,0,0,1-8.8,23.5,45.46,45.46,0,0,1-20.3,15c-13.21,4.88-29.32,3.88-44.89-6.9-7,16.08-19.46,24.32-32.93,26.68a51.62,51.62,0,0,1-31.67-5c-9.74-4.91-17.87-12.79-22-22.54-3.93-9.2-4.41-19.84.45-30.93q-69.86,12-134.54,7.81a476.47,476.47,0,0,1-140.69-30.44,8.09,8.09,0,0,1-4.67-10.42,8.41,8.41,0,0,1,.37-.81c.8-1.94,1.68-4.21,2.64-6.79s1.91-5.4,2.83-8.22l.11-.29,0-.08v0h0l.07-.22c.88-2.72,1.68-5.23,2.31-7.44s1.3-4.59,2-7.23h0l0-.08a8.08,8.08,0,0,1,8.86-6.15q100.19,6.45,178.47,5.17t135.22-10.24l.48-.07.13,0,.15,0h0q7.62-1.21,15.38-2.67c4.64-.88,9.47-1.87,14.41-2.95a8.27,8.27,0,0,1,1.31-.29q49-11,77-29.11,26.85-17.44,33.78-41.42a8.05,8.05,0,0,1,15.77,2.68Z"/><path class="cls-14" d="M1150.64,954.34a49.57,49.57,0,0,0-9,6.86q-126,115.36-166,144.31-4.93,24.93,22.5,69.14c1.85.95,3.72,1.88,5.66,2.81-18-39.1-15.66-58.94-.45-71.28,104.89-85.15,152.91-133,152.91-133a184.16,184.16,0,0,0-5.61-18.82"/><path class="cls-3" d="M1026.93,1193.63a152,152,0,0,1-24.62-2.35h0a8.05,8.05,0,0,1-5.33-3.49q-17.22-26-24.61-46.43-7.77-21.58-4.66-37.38h0a8,8,0,0,1,3.18-5q19.79-14.33,61-50.12,41.75-36.27,104-93.21l.33-.33a57.94,57.94,0,0,1,10.7-8.12q11-6.33,21.86-4.28,10.48,2,19.65,11.69a80.8,80.8,0,0,1,10.86,15l.25.44,26.69,50.22.29.63c4.48,10.43,3.94,19.68-.91,28.76-4.26,8-11.94,15.46-22.49,23.36-101.22,75.81-147.23,114.74-147.36,114.85-1,.86-4.73,3.53-6.13,3.8a113.34,113.34,0,0,1-22.62,1.93M1008.49,1176a132.34,132.34,0,0,0,18.57,1.59,98.76,98.76,0,0,0,17.44-1.32c9.2-7.69,57.52-47.61,148.88-116,8.76-6.55,14.94-12.4,18-18.06,2.37-4.44,2.63-9.1.45-14.45l-26.56-50a65.63,65.63,0,0,0-8.62-12c-3.7-3.93-7.33-6.24-10.88-6.9q-5-.93-10.87,2.45a41.38,41.38,0,0,0-7.68,5.86l-.5.44q-63.29,57.88-104.27,93.54-39.11,34-59.3,49-1.07,10.73,4.41,25.89Q993.78,1153.26,1008.49,1176Z"/><path class="cls-3" d="M1007.39,1188.6a6.43,6.43,0,1,1-7.37-10.54q66-46.05,111.79-81.91,43.38-34,68.52-58.75-6.67-30.12-16.6-48.29T1141,965.3a6.44,6.44,0,0,1,5.25-11.76Q1163.05,961,1175,983q11.4,20.87,18.65,55.22a6.45,6.45,0,0,1-1.74,5.85q-25.93,26-72.21,62.26-46,36.08-112.34,82.32"/></g></g></svg>