<?xml version="1.0" encoding="UTF-8"?>
<!DOCTYPE svg PUBLIC "-//W3C//DTD SVG 1.1//EN" "http://www.w3.org/Graphics/SVG/1.1/DTD/svg11.dtd">
<svg xmlns="http://www.w3.org/2000/svg" version="1.1" width="182px" height="80px" style="shape-rendering:geometricPrecision; text-rendering:geometricPrecision; image-rendering:optimizeQuality; fill-rule:evenodd; clip-rule:evenodd" xmlns:xlink="http://www.w3.org/1999/xlink">
<g><path style="opacity:1" fill="#299cd3" d="M 89.5,26.5 C 89.7062,29.4951 89.0395,32.1617 87.5,34.5C 87.5654,34.0618 87.3988,33.7284 87,33.5C 85.7225,36.7206 84.8891,40.054 84.5,43.5C 82.8561,43.7135 81.3561,43.3802 80,42.5C 79.2291,39.8103 78.3958,37.1436 77.5,34.5C 75.5359,38.1266 73.5359,38.2933 71.5,35C 72.9748,30.2408 74.6415,25.5741 76.5,21C 77.7839,20.3162 78.9505,20.4829 80,21.5C 80.9203,24.1013 81.587,26.7679 82,29.5C 82.6063,26.57 83.4396,23.7367 84.5,21C 88.0347,20.8063 89.7014,22.6396 89.5,26.5 Z"/></g>
<g><path style="opacity:1" fill="#1b69ad" d="M 87.5,34.5 C 89.0395,32.1617 89.7062,29.4951 89.5,26.5C 90.7709,24.8914 91.7709,23.0581 92.5,21C 93.5,20.3333 94.5,20.3333 95.5,21C 96.5604,23.7367 97.3937,26.57 98,29.5C 98.6667,26.8333 99.3333,24.1667 100,21.5C 101.049,20.4829 102.216,20.3162 103.5,21C 105.655,25.296 107.322,29.796 108.5,34.5C 106.838,38.464 105.005,38.464 103,34.5C 101.701,37.0062 100.701,39.6728 100,42.5C 98.6667,43.8333 97.3333,43.8333 96,42.5C 95.2291,39.8103 94.3958,37.1436 93.5,34.5C 91.1983,38.4153 89.1983,38.4153 87.5,34.5 Z"/></g>
<g><path style="opacity:0.616" fill="#057cb4" d="M 86.5,9.5 C 100.333,8.16988 109.166,14.1699 113,27.5C 114.668,41.5233 108.834,50.5233 95.5,54.5C 95.5,53.8333 95.5,53.1667 95.5,52.5C 111.125,45.6824 114.959,34.6824 107,19.5C 103.226,14.8639 98.3924,12.1972 92.5,11.5C 90.5,10.8333 88.5,10.1667 86.5,9.5 Z"/></g>
<g><path style="opacity:0.471" fill="#145f98" d="M 86.5,9.5 C 88.5,10.1667 90.5,10.8333 92.5,11.5C 78.3163,11.3465 70.3163,18.3465 68.5,32.5C 71.3475,47.7007 80.3475,54.3674 95.5,52.5C 95.5,53.1667 95.5,53.8333 95.5,54.5C 74.1683,55.9935 65.0017,45.9935 68,24.5C 71.3596,15.9681 77.5263,10.9681 86.5,9.5 Z"/></g>
<g><path style="opacity:0.549" fill="#027db4" d="M 54.5,62.5 C 54.7135,64.1439 54.3802,65.6439 53.5,67C 51.3435,67.0781 49.3435,67.2448 47.5,67.5C 46.7492,66.624 46.2492,65.624 46,64.5C 44.2687,68.3351 42.9354,68.0018 42,63.5C 41.6667,64.8333 41.3333,66.1667 41,67.5C 40.1816,64.7728 40.3483,62.1062 41.5,59.5C 42.5836,60.6651 43.4169,61.9984 44,63.5C 44.941,61.9386 46.1076,60.6053 47.5,59.5C 48.2508,60.376 48.7508,61.376 49,62.5C 50.8278,61.2475 52.6612,61.2475 54.5,62.5 Z"/></g>
<g><path style="opacity:0.429" fill="#0479ad" d="M 54.5,62.5 C 55.3074,59.5588 57.1407,59.2255 60,61.5C 62.4218,61.5176 64.5885,60.8509 66.5,59.5C 68.4717,60.3052 69.9717,61.6385 71,63.5C 72,60.8333 73,60.8333 74,63.5C 78.5184,61.593 83.3517,60.9264 88.5,61.5C 89.5168,65.7806 87.8501,68.114 83.5,68.5C 80.7235,68.054 78.2235,67.054 76,65.5C 75.3109,66.3567 74.4776,67.0233 73.5,67.5C 72.5,66.1667 71.5,66.1667 70.5,67.5C 69.8076,66.9747 69.3076,66.3081 69,65.5C 68.2613,66.5742 67.2613,67.2409 66,67.5C 63.6483,67.2654 61.1483,67.0988 58.5,67C 57.2687,61.013 56.4354,61.1797 56,67.5C 55.8019,65.6183 55.3019,63.9516 54.5,62.5 Z M 84.5,63.5 C 86.337,63.6395 86.6704,64.3061 85.5,65.5C 84.7025,65.0431 84.3691,64.3764 84.5,63.5 Z M 59.5,63.5 C 61.337,63.6395 61.6704,64.3061 60.5,65.5C 59.7025,65.0431 59.3691,64.3764 59.5,63.5 Z M 78.5,62.5 C 80.332,63.1405 80.6653,64.1405 79.5,65.5C 77.4807,64.8671 77.1474,63.8671 78.5,62.5 Z"/></g>
<g><path style="opacity:0.412" fill="#0273a5" d="M 116.5,67.5 C 116.5,65.5 116.5,63.5 116.5,61.5C 121.146,63.0178 125.479,62.3511 129.5,59.5C 130.807,60.8155 132.307,61.8155 134,62.5C 135.726,61.4238 137.559,61.2571 139.5,62C 141.011,64.7821 140.178,66.6155 137,67.5C 135.765,66.3845 134.598,66.3845 133.5,67.5C 132.167,62.1667 130.833,62.1667 129.5,67.5C 126.833,67.5 124.167,67.5 121.5,67.5C 120.833,66.1667 120.167,64.8333 119.5,63.5C 118.943,65.3316 117.943,66.6649 116.5,67.5 Z M 124.5,63.5 C 129.021,63.3262 129.355,63.9929 125.5,65.5C 124.702,65.0431 124.369,64.3764 124.5,63.5 Z"/></g>
<g><path style="opacity:0.412" fill="#0378ac" d="M 116.5,61.5 C 116.5,63.5 116.5,65.5 116.5,67.5C 112.305,67.0523 107.972,66.8856 103.5,67C 102.874,66.2496 102.374,65.4162 102,64.5C 100.235,68.0191 97.9012,68.3524 95,65.5C 93.7147,65.9504 92.548,66.6171 91.5,67.5C 91.2433,64.6236 92.2433,61.957 94.5,59.5C 96.4219,60.711 98.2552,62.0443 100,63.5C 103.077,62.097 106.243,60.7637 109.5,59.5C 110.251,60.376 110.751,61.376 111,62.5C 112.699,61.5939 114.533,61.2606 116.5,61.5 Z M 112.5,63.5 C 114.337,63.6395 114.67,64.3061 113.5,65.5C 112.702,65.0431 112.369,64.3764 112.5,63.5 Z M 104.5,63.5 C 106.337,63.6395 106.67,64.3061 105.5,65.5C 104.702,65.0431 104.369,64.3764 104.5,63.5 Z"/></g>
</svg>
