<?xml version="1.0" encoding="UTF-8"?>
<!DOCTYPE svg PUBLIC "-//W3C//DTD SVG 1.1//EN" "http://www.w3.org/Graphics/SVG/1.1/DTD/svg11.dtd">
<svg xmlns="http://www.w3.org/2000/svg" version="1.1" width="109px" height="111px" style="shape-rendering:geometricPrecision; text-rendering:geometricPrecision; image-rendering:optimizeQuality; fill-rule:evenodd; clip-rule:evenodd" xmlns:xlink="http://www.w3.org/1999/xlink">
<g><path style="opacity:1" fill="#0599d9" d="M 31.5,36.5 C 34.188,36.1658 36.5214,36.8325 38.5,38.5C 39.4861,42.1128 40.3195,45.7795 41,49.5C 41.3826,50.056 41.8826,50.3893 42.5,50.5C 41.1728,56.478 39.8395,62.478 38.5,68.5C 37.3226,64.1252 35.9893,59.7919 34.5,55.5C 34.7373,54.209 34.404,53.209 33.5,52.5C 33.1924,48.4052 32.3591,44.4052 31,40.5C 30.6174,41.056 30.1174,41.3893 29.5,41.5C 29.7959,39.597 30.4625,37.9303 31.5,36.5 Z"/></g>
<g><path style="opacity:0.729" fill="#016591" d="M 31.5,36.5 C 33.2884,35.3775 35.2884,35.2109 37.5,36C 38.2524,36.6708 38.5858,37.5041 38.5,38.5C 36.5214,36.8325 34.188,36.1658 31.5,36.5 Z"/></g>
<g><path style="opacity:1" fill="#2fa0d6" d="M 54.5,43.5 C 55.9896,49.3468 54.9896,54.6801 51.5,59.5C 50.9101,58.234 50.4101,56.9007 50,55.5C 48.3369,61.4838 46.6703,67.4838 45,73.5C 42.7985,76.0371 40.6319,76.0371 38.5,73.5C 38.5,71.8333 38.5,70.1667 38.5,68.5C 39.8395,62.478 41.1728,56.478 42.5,50.5C 42.9917,45.3592 44.325,40.5259 46.5,36C 52.1111,35.1054 54.7778,37.6054 54.5,43.5 Z"/></g>
<g><path style="opacity:1" fill="#1b69ac" d="M 51.5,59.5 C 54.9896,54.6801 55.9896,49.3468 54.5,43.5C 55.2679,44.2625 55.7679,45.2625 56,46.5C 57.0681,43.129 58.2347,39.7957 59.5,36.5C 61.4213,35.359 63.4213,35.1923 65.5,36C 67.5019,41.3324 69.0019,46.8324 70,52.5C 71.0239,47.071 72.3572,41.7377 74,36.5C 75.7261,35.4238 77.5594,35.2571 79.5,36C 83.0748,43.7172 86.0748,51.7172 88.5,60C 87.3493,64.0805 85.016,65.0805 81.5,63C 79.5625,60.5297 78.3958,57.6964 78,54.5C 72.5754,82.4675 67.2421,82.4675 62,54.5C 61.5548,59.0744 59.3882,62.4077 55.5,64.5C 53.0392,63.7086 51.7059,62.0419 51.5,59.5 Z"/></g>
<g><path style="opacity:1" fill="#329ed2" d="M 33.5,52.5 C 32.1009,55.6988 31.1009,59.0321 30.5,62.5C 27.1095,65.1506 24.7761,64.3173 23.5,60C 25.2083,53.7091 27.2083,47.5424 29.5,41.5C 30.1174,41.3893 30.6174,41.056 31,40.5C 32.3591,44.4052 33.1924,48.4052 33.5,52.5 Z"/></g>
<g><path style="opacity:0.608" fill="#236e93" d="M 33.5,52.5 C 34.404,53.209 34.7373,54.209 34.5,55.5C 33.1667,57.8333 31.8333,60.1667 30.5,62.5C 31.1009,59.0321 32.1009,55.6988 33.5,52.5 Z"/></g>
<g><path style="opacity:0.71" fill="#146a96" d="M 34.5,55.5 C 35.9893,59.7919 37.3226,64.1252 38.5,68.5C 38.5,70.1667 38.5,71.8333 38.5,73.5C 36.5478,67.7514 35.2145,61.7514 34.5,55.5 Z"/></g>
<g><path style="opacity:1" fill="#0775ac" d="M 49.5,95.5 C 48.7375,94.7321 47.7375,94.2321 46.5,94C 51.3514,93.8255 56.0181,93.3255 60.5,92.5C 81.0136,88.653 92.0136,76.3196 93.5,55.5C 93.0003,39.9938 86.0003,28.4938 72.5,21C 56.8097,14.6962 42.4763,16.8628 29.5,27.5C 28.1667,27.5 27.5,26.8333 27.5,25.5C 39.3016,14.9685 52.9682,11.8018 68.5,16C 92.7519,26.675 101.252,44.8417 94,70.5C 84.9241,89.1205 70.0907,97.4538 49.5,95.5 Z"/></g>
<g><path style="opacity:1" fill="#14588c" d="M 27.5,25.5 C 27.5,26.8333 28.1667,27.5 29.5,27.5C 15.5474,43.6548 14.3808,60.6548 26,78.5C 35.0728,89.1189 46.5728,93.7855 60.5,92.5C 56.0181,93.3255 51.3514,93.8255 46.5,94C 47.7375,94.2321 48.7375,94.7321 49.5,95.5C 27.7049,90.8648 16.0382,77.3648 14.5,55C 15.0886,43.3614 19.4219,33.5281 27.5,25.5 Z"/></g>
</svg>
