<?xml version="1.0" encoding="UTF-8"?>
<!DOCTYPE svg PUBLIC "-//W3C//DTD SVG 1.1//EN" "http://www.w3.org/Graphics/SVG/1.1/DTD/svg11.dtd">
<svg xmlns="http://www.w3.org/2000/svg" version="1.1" width="184px" height="170px" style="shape-rendering:geometricPrecision; text-rendering:geometricPrecision; image-rendering:optimizeQuality; fill-rule:evenodd; clip-rule:evenodd" xmlns:xlink="http://www.w3.org/1999/xlink">
<g><path style="opacity:1" fill="#ab1516" d="M 127.5,82.5 C 127.719,83.675 127.386,84.675 126.5,85.5C 124.408,83.3951 122.075,81.7284 119.5,80.5C 118.5,80.1667 117.833,79.5 117.5,78.5C 116.415,76.4131 114.749,75.0798 112.5,74.5C 108.561,72.5538 104.894,70.2205 101.5,67.5C 101.027,66.0937 100.027,65.427 98.5,65.5C 91.3226,62.1078 83.9893,59.1078 76.5,56.5C 75.8902,55.609 75.5569,54.609 75.5,53.5C 81.459,39.5817 87.959,25.9151 95,12.5C 106.102,35.7043 116.935,59.0376 127.5,82.5 Z"/></g>
<g><path style="opacity:0.459" fill="#51090a" d="M 75.5,53.5 C 75.5569,54.609 75.8902,55.609 76.5,56.5C 74.4482,55.9473 74.1148,54.9473 75.5,53.5 Z"/></g>
<g><path style="opacity:0.569" fill="#4d0b0a" d="M 73.5,64.5 C 72.0413,64.4326 70.7079,64.7659 69.5,65.5C 69.62,64.4138 70.2867,63.7472 71.5,63.5C 72.4164,63.5427 73.0831,63.8761 73.5,64.5 Z"/></g>
<g><path style="opacity:1" fill="#ac1516" d="M 73.5,64.5 C 73.8333,64.5 74.1667,64.5 74.5,64.5C 75.7804,65.9313 77.4471,66.5979 79.5,66.5C 97.0098,72.7535 112.01,82.7535 124.5,96.5C 124.738,98.4044 125.738,99.7377 127.5,100.5C 128.5,100.833 129.167,101.5 129.5,102.5C 130.419,105.089 132.086,107.089 134.5,108.5C 135.08,110.749 136.413,112.415 138.5,113.5C 145.335,121.155 150.668,129.821 154.5,139.5C 154.649,140.552 154.483,141.552 154,142.5C 153.329,141.748 152.496,141.414 151.5,141.5C 133.501,122.329 111.501,110.162 85.5,105C 75.481,104.334 65.481,104.501 55.5,105.5C 53.5168,105.843 52.1834,105.176 51.5,103.5C 56.9905,90.522 62.9905,77.8553 69.5,65.5C 70.7079,64.7659 72.0413,64.4326 73.5,64.5 Z"/></g>
<g><path style="opacity:0.514" fill="#570c0c" d="M 74.5,64.5 C 76.5529,64.4021 78.2196,65.0687 79.5,66.5C 77.4471,66.5979 75.7804,65.9313 74.5,64.5 Z"/></g>
<g><path style="opacity:0.392" fill="#520e0b" d="M 98.5,65.5 C 100.027,65.427 101.027,66.0937 101.5,67.5C 99.9731,67.573 98.9731,66.9063 98.5,65.5 Z"/></g>
<g><path style="opacity:0.969" fill="#680f0e" d="M 112.5,74.5 C 114.749,75.0798 116.415,76.4131 117.5,78.5C 115.251,77.9202 113.585,76.5869 112.5,74.5 Z"/></g>
<g><path style="opacity:1" fill="#700f0f" d="M 119.5,80.5 C 122.075,81.7284 124.408,83.3951 126.5,85.5C 127.386,84.675 127.719,83.675 127.5,82.5C 129.79,85.0767 130.956,88.0767 131,91.5C 126.804,88.1633 122.971,84.4966 119.5,80.5 Z"/></g>
<g><path style="opacity:0.647" fill="#570d0c" d="M 124.5,96.5 C 126.262,97.2623 127.262,98.5956 127.5,100.5C 125.738,99.7377 124.738,98.4044 124.5,96.5 Z"/></g>
<g><path style="opacity:0.937" fill="#6a0e0f" d="M 129.5,102.5 C 131.914,103.911 133.581,105.911 134.5,108.5C 132.086,107.089 130.419,105.089 129.5,102.5 Z"/></g>
<g><path style="opacity:0.58" fill="#570b0b" d="M 51.5,103.5 C 52.1834,105.176 53.5168,105.843 55.5,105.5C 54.0813,106.451 52.4147,106.784 50.5,106.5C 50.2627,105.209 50.596,104.209 51.5,103.5 Z"/></g>
<g><path style="opacity:0.937" fill="#6a0f0f" d="M 134.5,108.5 C 136.587,109.585 137.92,111.251 138.5,113.5C 136.413,112.415 135.08,110.749 134.5,108.5 Z"/></g>
<g><path style="opacity:1" fill="#af1516" d="M 90.5,114.5 C 94.6175,116.204 98.9508,117.537 103.5,118.5C 117.967,123.316 130.3,131.316 140.5,142.5C 138.721,144.344 136.388,145.01 133.5,144.5C 124.128,145.17 114.795,146.17 105.5,147.5C 102.505,147.294 99.8383,147.96 97.5,149.5C 92.1779,149.02 86.8446,148.687 81.5,148.5C 69.5,148.5 57.5,148.5 45.5,148.5C 41.6255,148.356 37.7921,148.69 34,149.5C 33.1667,149.167 32.3333,148.833 31.5,148.5C 32.3094,146.929 32.6427,145.262 32.5,143.5C 35.9301,135.642 39.5968,127.976 43.5,120.5C 45.7364,118.094 48.403,116.428 51.5,115.5C 58.3263,113.073 65.4929,112.073 73,112.5C 79.0829,112.299 84.9163,112.966 90.5,114.5 Z"/></g>
<g><path style="opacity:0.561" fill="#68110f" d="M 90.5,114.5 C 95.2888,114.654 99.6222,115.987 103.5,118.5C 98.9508,117.537 94.6175,116.204 90.5,114.5 Z"/></g>
<g><path style="opacity:0.929" fill="#710f0f" d="M 51.5,115.5 C 48.403,116.428 45.7364,118.094 43.5,120.5C 44.6361,116.65 47.3028,114.984 51.5,115.5 Z"/></g>
<g><path style="opacity:1" fill="#730f10" d="M 154.5,139.5 C 156.392,142.276 158.059,145.276 159.5,148.5C 159.167,148.833 158.833,149.167 158.5,149.5C 155.697,147.217 153.364,144.55 151.5,141.5C 152.496,141.414 153.329,141.748 154,142.5C 154.483,141.552 154.649,140.552 154.5,139.5 Z"/></g>
<g><path style="opacity:0.373" fill="#3f0c08" d="M 140.5,142.5 C 141.478,142.811 142.145,143.478 142.5,144.5C 139.355,145.803 136.355,145.803 133.5,144.5C 136.388,145.01 138.721,144.344 140.5,142.5 Z"/></g>
<g><path style="opacity:0.541" fill="#55100c" d="M 105.5,147.5 C 103.095,148.768 100.428,149.435 97.5,149.5C 99.8383,147.96 102.505,147.294 105.5,147.5 Z"/></g>
<g><path style="opacity:1" fill="#6a110f" d="M 32.5,143.5 C 32.6427,145.262 32.3094,146.929 31.5,148.5C 32.3333,148.833 33.1667,149.167 34,149.5C 37.7921,148.69 41.6255,148.356 45.5,148.5C 40.2945,149.492 34.9611,150.492 29.5,151.5C 29.9802,148.557 30.9802,145.89 32.5,143.5 Z"/></g>
<g><path style="opacity:0.845" fill="#6b0e0e" d="M 81.5,148.5 C 86.8446,148.687 92.1779,149.02 97.5,149.5C 92.112,150.644 86.7787,150.311 81.5,148.5 Z"/></g>
</svg>
