<svg xmlns="http://www.w3.org/2000/svg" xmlns:xlink="http://www.w3.org/1999/xlink" width="229.5" height="216.5" viewBox="0 0 229.5 216.5">
  <defs>
    <clipPath id="clip-path">
      <path id="Контур_17241" data-name="Контур 17241" d="M88.411,0a88.4,88.4,0,0,1,88.038,80.258l-56.5,3.893,56.857,2.807c0,.474.018.95.018,1.427A88.294,88.294,0,0,1,136.439,162.6c-9.916-3.536-24.153-5.753-39.973-5.753-21.456,0-40,4.077-48.8,9.993A88.8,88.8,0,0,1,16.9,140.349l71.152-3.51-76.793-5.286A88.473,88.473,0,0,1,8.809,49.883L53.148,47.7l-41.68-2.871A88.4,88.4,0,0,1,88.411,0" transform="translate(0)" fill="none"/>
    </clipPath>
  </defs>
  <g id="MSAAUSDT" transform="translate(3712 -2470)">
    <g id="Сгруппировать_1788" data-name="Сгруппировать 1788" transform="translate(544 -28)">
      <circle id="Ellipse_37" data-name="Ellipse 37" cx="91" cy="91" r="91" transform="translate(-4211 2530)" fill="#fff" stroke="#fff" stroke-width="5"/>
      <g id="Layer_2" data-name="Layer 2" transform="translate(-4212.549 2530)">
        <g id="Layer_1" data-name="Layer 1" transform="translate(0)">
          <path id="Контур_17131" data-name="Контур 17131" d="M88.411,0a88.4,88.4,0,0,1,88.038,80.258l-56.5,3.893,56.857,2.807c0,.474.018.95.018,1.427A88.294,88.294,0,0,1,136.439,162.6c-9.916-3.536-24.153-5.753-39.973-5.753-21.456,0-40,4.077-48.8,9.993A88.8,88.8,0,0,1,16.9,140.349l71.152-3.51-76.793-5.286A88.473,88.473,0,0,1,8.809,49.883L53.148,47.7l-41.68-2.871A88.4,88.4,0,0,1,88.411,0" transform="translate(4.472 2.319)" fill="#e61e24" fill-rule="evenodd"/>
          <g id="Сгруппировать_1786" data-name="Сгруппировать 1786" transform="translate(4.472 2.319)" clip-path="url(#clip-path)">
            <path id="Контур_17132" data-name="Контур 17132" d="M342.182,1496.54c31.543,0,57.112,8.368,57.112,18.692s-25.57,18.7-57.112,18.7-57.112-8.369-57.112-18.693,25.577-18.692,57.112-18.692" transform="translate(-246.08 -1291.924)" fill="#631941" fill-rule="evenodd" opacity="0.4"/>
            <path id="Контур_17133" data-name="Контур 17133" d="M382.074,399.577c11.927-43.387-14.174-76.735-58.1-67.3-23.808,5.115-38.853,28.942-36.735,53.189a50.7,50.7,0,0,0,45.4,46.022c30.355,2.517,51.023-10.285,50.241-22.762-.238-3.828-1.691-6.609-.8-9.161" transform="translate(-247.782 -285.461)" fill="#fff" fill-rule="evenodd"/>
            <path id="Контур_17134" data-name="Контур 17134" d="M377.786,359.345c2.135,9.935,1.751,21.347-1.592,33.528a1.121,1.121,0,0,1-.033.116c-.447,1.281-.137,2.806.231,4.583a28.75,28.75,0,0,1,.632,4.144,12.165,12.165,0,0,1-.016,1.76c-.449,5.4-4.478,10.692-11.271,14.776-6.616,3.975-15.9,6.836-27.065,7.543h-.03a89.937,89.937,0,0,1-13.049-.156h-.016a51.8,51.8,0,0,1-46.389-47.024,53.755,53.755,0,0,1,9.193-35,46.356,46.356,0,0,1,28.413-19.359c10.815-2.324,20.586-2.092,29.015.224a43.361,43.361,0,0,1,20.9,12.659,47.5,47.5,0,0,1,11.079,22.207M374.072,392.3c3.244-11.825,3.622-22.885,1.556-32.493a45.269,45.269,0,0,0-10.552-21.18A41.2,41.2,0,0,0,345.229,326.6c-8.093-2.223-17.507-2.439-27.98-.19a44.163,44.163,0,0,0-27.058,18.45,51.516,51.516,0,0,0-8.805,33.566,49.592,49.592,0,0,0,44.388,45.013h0a88.1,88.1,0,0,0,12.729.156h.026c10.8-.684,19.739-3.426,26.076-7.234,6.167-3.707,9.815-8.387,10.2-13.068a9.868,9.868,0,0,0,.016-1.448,27.006,27.006,0,0,0-.588-3.828c-.429-2.091-.8-3.879-.164-5.723Z" transform="translate(-240.828 -278.511)" fill="#631941"/>
            <path id="Контур_17135" data-name="Контур 17135" d="M330,334.8q-2.954.387-6.029,1.045c-23.808,5.115-38.853,28.942-36.735,53.189q.048.529.1,1.057c.714-18.443,23.525-18.078,37.327-31Q340.794,343.5,330,334.8" transform="translate(-247.782 -289.024)" fill="#b4acbd" fill-rule="evenodd"/>
            <path id="Контур_17136" data-name="Контур 17136" d="M733.765,406.852c9.353-34.022-4.679-61.866-32.35-67.752-21.134,40.867,10.549,78.776,32.689,73.638-.449-2.253-.957-4.128-.339-5.879" transform="translate(-599.473 -292.736)" fill="#f9944b" fill-rule="evenodd"/>
            <path id="Контур_17137" data-name="Контур 17137" d="M313.258,239.162h0c5.873-13.763,17.507-24.656,32.7-27.922,1.119-.241,2.224-.446,3.32-.632V210.6Q342.13,195.8,323.5,190.46c-8.941,9.835-12.735,26.507-10.237,48.7" transform="translate(-269.764 -164.419)" fill="#b4acbd" fill-rule="evenodd"/>
            <path id="Контур_17138" data-name="Контур 17138" d="M307.043,228.161A50.071,50.071,0,0,1,318.9,213.136a45.1,45.1,0,0,1,19.9-9.889c.547-.118,1.109-.231,1.693-.342l.2-.038a33.577,33.577,0,0,0-9.042-10.748,44.267,44.267,0,0,0-14.725-7.319c-4.143,4.769-7.1,11.131-8.742,18.938a85.994,85.994,0,0,0-1.142,24.423m-.711,5.2h0a1.106,1.106,0,0,1-1.094-.982c-1.247-11.1-.936-20.845.795-29.078,1.778-8.463,5.061-15.337,9.688-20.446a1.1,1.1,0,0,1,1.154-.36,47.048,47.048,0,0,1,16.139,7.9,35.807,35.807,0,0,1,10.3,12.759,1.063,1.063,0,0,1,.129.379h0a1.1,1.1,0,0,1-.908,1.25q-.821.137-1.63.29-.777.148-1.641.334a42.9,42.9,0,0,0-18.923,9.407,48.453,48.453,0,0,0-12.957,17.795,1.105,1.105,0,0,1-1.055.744Z" transform="translate(-262.835 -157.504)" fill="#631941"/>
            <path id="Контур_17139" data-name="Контур 17139" d="M416.86,211.853Q409.838,197.57,392,192.19a17.381,17.381,0,0,0-1.064,1.5q14.881,6.537,21.5,18.885,2.462-.316,4.415-.73" transform="translate(-337.47 -165.913)" fill="#fff" fill-rule="evenodd" opacity="0.5"/>
            <path id="Контур_17140" data-name="Контур 17140" d="M377.864,292.375a45,45,0,0,1,20.407-13.617h0a25.989,25.989,0,0,0-16.4-11.348q-4.382,9.378-4.006,24.965Z" transform="translate(-326.155 -230.848)" fill="#f69" fill-rule="evenodd"/>
            <path id="Контур_17141" data-name="Контур 17141" d="M380.949,278.048a45.392,45.392,0,0,0-9.087,8.039,1.094,1.094,0,0,1-.888.447h0a1.094,1.094,0,0,1-1.094-1.073,78.807,78.807,0,0,1,.821-14.23,42.146,42.146,0,0,1,3.246-11.149,1.1,1.1,0,0,1,1.267-.69,26.463,26.463,0,0,1,9.574,4.1,29.355,29.355,0,0,1,7.509,7.7h0a1.1,1.1,0,0,1-.583,1.661,42.663,42.663,0,0,0-10.764,5.2m-8.9,4.582a47.209,47.209,0,0,1,7.673-6.415,44.923,44.923,0,0,1,9.9-4.973,26.444,26.444,0,0,0-6.091-5.941,24.123,24.123,0,0,0-7.919-3.555,41.186,41.186,0,0,0-2.735,9.827,72.1,72.1,0,0,0-.826,11.053Z" transform="translate(-319.264 -223.904)" fill="#631941"/>
            <path id="Контур_17142" data-name="Контур 17142" d="M757.42,291.3h0a42.232,42.232,0,0,1,28.8,23.79h0A52.424,52.424,0,0,0,788,283.469c-10.108-.976-21.049,2.218-30.576,7.832" transform="translate(-653.825 -244.561)" fill="#f9944b" fill-rule="evenodd"/>
            <path id="Контур_17143" data-name="Контур 17143" d="M753.331,284.016a43.044,43.044,0,0,1,25.778,21.314,51.351,51.351,0,0,0,1.067-27.773,43.194,43.194,0,0,0-13.907,1.367,58.16,58.16,0,0,0-12.935,5.1m-3.121,1.414a1.1,1.1,0,0,1-.3-2.021,61.142,61.142,0,0,1,15.807-6.627,45.026,45.026,0,0,1,15.431-1.356h0a1.094,1.094,0,0,1,.957.82,53.491,53.491,0,0,1-1.778,32.232,1.094,1.094,0,0,1-.749.727h-.008a1.1,1.1,0,0,1-1.3-.6,41.156,41.156,0,0,0-28.063-23.185Z" transform="translate(-646.879 -237.618)" fill="#631941"/>
            <path id="Контур_17144" data-name="Контур 17144" d="M951.932,314.632a52.426,52.426,0,0,0,1.35-30.476c-.261-.025-.522-.048-.784-.066-.368.41-.743.856-1.127,1.33q2.823,7.506-2.481,25.479a15.97,15.97,0,0,0,3.046,3.733" transform="translate(-819.107 -245.248)" fill="#fff" fill-rule="evenodd" opacity="0.5"/>
            <path id="Контур_17145" data-name="Контур 17145" d="M843.2,337.376a41.362,41.362,0,0,1,11.352,9.794h.008a27.244,27.244,0,0,0,2.956-15.877c-4-.621-8.777,1.025-14.322,6.084Z" transform="translate(-727.864 -285.889)" fill="#f69" fill-rule="evenodd"/>
            <path id="Контур_17146" data-name="Контур 17146" d="M841.614,335.627a40.347,40.347,0,0,0-5.881-4.208,1.1,1.1,0,0,1-.633-1h0a1.1,1.1,0,0,1,.36-.82,28.465,28.465,0,0,1,7.788-5.253,13.579,13.579,0,0,1,7.392-1.107,1.1,1.1,0,0,1,.989.984,29.7,29.7,0,0,1-.3,8.569,27.835,27.835,0,0,1-2.746,7.884,1.1,1.1,0,0,1-.7.6h0a1.105,1.105,0,0,1-1.161-.369,40.334,40.334,0,0,0-5.1-5.276m-3.556-5.368a42.437,42.437,0,0,1,9.265,7.951,25.323,25.323,0,0,0,1.829-5.818,27.334,27.334,0,0,0,.358-7.065,11.888,11.888,0,0,0-5.407,1.043,24.344,24.344,0,0,0-6.047,3.888Z" transform="translate(-720.881 -278.932)" fill="#631941"/>
            <path id="Контур_17147" data-name="Контур 17147" d="M336.044,1050.7a73.461,73.461,0,0,0-32.118,51.3c-1.915,22.471,11.159,28.779,23.634,17.814,8.784-.574,10.826-8.119,3.526-19.3q2.347-3.708,3.979-13.4,8.272,4.1,32.846,2.889c3.3-.361,7.308-.093,8.864,3.157h0l.059.124,4.329-.82q18.36-10.815,11.56-15.313-11.162-17.7-18.722-26.176c-11.478,3.083-26.515,3.555-37.959-.283" transform="translate(-262.194 -907.033)" fill="#fff" fill-rule="evenodd"/>
            <path id="Контур_17148" data-name="Контур 17148" d="M328.593,1079.21a1.1,1.1,0,0,1,.572,1.154m-22.632-14.993a74.585,74.585,0,0,1,21.915-22.53h0a1.1,1.1,0,0,1,.957-.126,58.341,58.341,0,0,0,17.794,2.677,74.861,74.861,0,0,0,19.531-2.415h0a1.1,1.1,0,0,1,1.108.332,131.4,131.4,0,0,1,8.535,10.878q4.643,6.488,10.172,15.248a5.439,5.439,0,0,1,1.574,1.641h0a3.964,3.964,0,0,1,.516,2.613,6.535,6.535,0,0,1-1.109,2.7q-2.76,4.188-12.738,10.067a1.1,1.1,0,0,1-.41.167l-4.285.807a1.1,1.1,0,0,1-1.253-.622l-.057-.123h0a4.479,4.479,0,0,0-3.06-2.324,13.214,13.214,0,0,0-4.687-.194h-.064a155.863,155.863,0,0,1-20.646-.118,42.064,42.064,0,0,1-11.41-2.294,66.242,66.242,0,0,1-1.6,6.925,24.614,24.614,0,0,1-1.931,4.869c2.662,4.215,4.028,7.952,4.229,11.025a9.591,9.591,0,0,1-.7,4.512,7.408,7.408,0,0,1-2.776,3.238,11.062,11.062,0,0,1-5.118,1.616,21.385,21.385,0,0,1-9.491,5.017,11.6,11.6,0,0,1-8.042-1.094,13.469,13.469,0,0,1-5.692-6.608c-1.751-3.957-2.547-9.4-1.96-16.292h0v-.057a74.523,74.523,0,0,1,10.641-29.463Zm22.693-20.393a72.352,72.352,0,0,0-20.814,21.557l-.049.074a72.313,72.313,0,0,0-10.318,28.543h0c-.555,6.5.171,11.586,1.778,15.222a11.344,11.344,0,0,0,4.734,5.565,9.417,9.417,0,0,0,6.549.867,19.483,19.483,0,0,0,8.744-4.758,1.094,1.094,0,0,1,.7-.273,9.145,9.145,0,0,0,4.4-1.289,5.216,5.216,0,0,0,1.956-2.281,7.383,7.383,0,0,0,.524-3.486c-.186-2.847-1.555-6.418-4.247-10.54a1.093,1.093,0,0,1-.007-1.185h0a20.073,20.073,0,0,0,2.042-4.922,68.514,68.514,0,0,0,1.778-8.067,1.1,1.1,0,0,1,1.6-.792q3.946,1.94,11.927,2.643a153.586,153.586,0,0,0,20.305.12,15.266,15.266,0,0,1,5.463.257,6.689,6.689,0,0,1,4.147,2.893l3.352-.631q9.429-5.573,11.9-9.307a4.426,4.426,0,0,0,.763-1.777,1.825,1.825,0,0,0-.228-1.2h0a3.436,3.436,0,0,0-1.094-1.065,1.083,1.083,0,0,1-.352-.375q-5.541-8.787-10.2-15.3-4.362-6.1-7.941-10.183a77.44,77.44,0,0,1-19.446,2.311A61.189,61.189,0,0,1,329.226,1044.978Z" transform="translate(-255.207 -900.099)" fill="#631941"/>
            <path id="Контур_17149" data-name="Контур 17149" d="M336.088,1153.84A73.5,73.5,0,0,0,322,1180.182c7.551,6.894,13.664,5.775,14.523-3.946.4-4.523-.646-8.2.751-11.24q3.088-6.879-1.191-11.155" transform="translate(-277.959 -996.08)" fill="#f9944b" fill-rule="evenodd"/>
            <path id="Контур_17150" data-name="Контур 17150" d="M626.252,1128.689a160.746,160.746,0,0,0,19.409.029c3.3-.361,7.308-.093,8.864,3.157h0l.059.124,4.329-.82q18.36-10.815,11.56-15.313-7.3-11.581-13.06-19.21a24.216,24.216,0,0,0-31.161,19.129q-1.5,8.764,0,12.908" transform="translate(-539.948 -945.749)" fill="#f9944b" fill-rule="evenodd"/>
            <path id="Контур_17151" data-name="Контур 17151" d="M328.593,1079.21a1.1,1.1,0,0,1,.572,1.154m-22.632-14.993a74.585,74.585,0,0,1,21.915-22.53h0a1.1,1.1,0,0,1,.957-.126,58.341,58.341,0,0,0,17.794,2.677,74.861,74.861,0,0,0,19.531-2.415h0a1.1,1.1,0,0,1,1.108.332,131.4,131.4,0,0,1,8.535,10.878q4.643,6.488,10.172,15.248a5.439,5.439,0,0,1,1.574,1.641h0a3.964,3.964,0,0,1,.516,2.613,6.535,6.535,0,0,1-1.109,2.7q-2.76,4.188-12.738,10.067a1.1,1.1,0,0,1-.41.167l-4.285.807a1.1,1.1,0,0,1-1.253-.622l-.057-.123h0a4.479,4.479,0,0,0-3.06-2.324,13.214,13.214,0,0,0-4.687-.194h-.064a155.863,155.863,0,0,1-20.646-.118,42.064,42.064,0,0,1-11.41-2.294,66.242,66.242,0,0,1-1.6,6.925,24.614,24.614,0,0,1-1.931,4.869c2.662,4.215,4.028,7.952,4.229,11.025a9.591,9.591,0,0,1-.7,4.512,7.408,7.408,0,0,1-2.776,3.238,11.062,11.062,0,0,1-5.118,1.616,21.385,21.385,0,0,1-9.491,5.017,11.6,11.6,0,0,1-8.042-1.094,13.469,13.469,0,0,1-5.692-6.608c-1.751-3.957-2.547-9.4-1.96-16.292h0v-.057a74.523,74.523,0,0,1,10.641-29.463Zm22.693-20.393a72.352,72.352,0,0,0-20.814,21.557l-.049.074a72.313,72.313,0,0,0-10.318,28.543h0c-.555,6.5.171,11.586,1.778,15.222a11.344,11.344,0,0,0,4.734,5.565,9.417,9.417,0,0,0,6.549.867,19.483,19.483,0,0,0,8.744-4.758,1.094,1.094,0,0,1,.7-.273,9.145,9.145,0,0,0,4.4-1.289,5.216,5.216,0,0,0,1.956-2.281,7.383,7.383,0,0,0,.524-3.486c-.186-2.847-1.555-6.418-4.247-10.54a1.093,1.093,0,0,1-.007-1.185h0a20.073,20.073,0,0,0,2.042-4.922,68.514,68.514,0,0,0,1.778-8.067,1.1,1.1,0,0,1,1.6-.792q3.946,1.94,11.927,2.643a153.586,153.586,0,0,0,20.305.12,15.266,15.266,0,0,1,5.463.257,6.689,6.689,0,0,1,4.147,2.893l3.352-.631q9.429-5.573,11.9-9.307a4.426,4.426,0,0,0,.763-1.777,1.825,1.825,0,0,0-.228-1.2h0a3.436,3.436,0,0,0-1.094-1.065,1.083,1.083,0,0,1-.352-.375q-5.541-8.787-10.2-15.3-4.362-6.1-7.941-10.183a77.44,77.44,0,0,1-19.446,2.311A61.189,61.189,0,0,1,329.226,1044.978Z" transform="translate(-255.207 -900.099)" fill="#631941"/>
            <path id="Контур_17152" data-name="Контур 17152" d="M391.739,1018.66h0a50.559,50.559,0,0,0,20.62,6.754c14.26,1.181,26.382-1.016,35.151-4.973h0c.517-.234,1.02-.474,1.514-.719a5.145,5.145,0,0,1,5.471,8.113q10.72,5.684-11.079,23.133-26.546-4.512-41.7-18.557-8.48-6.682-15.306,3.817-17.132,3.812,7.633-11.485-22.087,3.109-2.31-6.083" transform="translate(-327.509 -879.383)" fill="#7d6991" fill-rule="evenodd"/>
            <path id="Контур_17153" data-name="Контур 17153" d="M373.627,1029.189v0Zm74.533-15.712a1.094,1.094,0,0,1-.1,1.493m-53.6,2.267a51.708,51.708,0,0,1-9.654-4.3q-8.432,3.936-8.224,4.485.263.7,10.439-.737h0a1.094,1.094,0,0,1,.729,2.025q-10.75,6.638-13.445,9.571a7.4,7.4,0,0,0-.517.613,17.8,17.8,0,0,0,5.077-.607q3.548-5.269,7.651-6.289,4.348-1.083,9.009,2.589h0l.07.06a64.144,64.144,0,0,0,17.7,11.462,97.479,97.479,0,0,0,22.946,6.731q10.367-8.362,12.976-13.809,2.311-4.829-2.11-7.177h0a1.02,1.02,0,0,1-.164-.107,1.094,1.094,0,0,1-.189-1.544,4.05,4.05,0,0,0,.852-2.672v-.008a4.038,4.038,0,0,0-1.05-2.535l-.053-.052a4.018,4.018,0,0,0-3.966-1.129l-.656.321h0c-.274.127-.532.249-.784.364h0a61.123,61.123,0,0,1-16.537,4.606,86.177,86.177,0,0,1-19.148.462h-.016A51.843,51.843,0,0,1,394.454,1017.236Zm-9.6-6.646h0a1.094,1.094,0,0,1,.618.187,49.478,49.478,0,0,0,20.1,6.568h0a84.1,84.1,0,0,0,18.669-.446,58.959,58.959,0,0,0,15.933-4.434h.027c.252-.115.492-.226.721-.335h0c.349-.167.576-.273.734-.356a1.228,1.228,0,0,1,.186-.071h0a6.262,6.262,0,0,1,6.264,1.719l.055.064a6.227,6.227,0,0,1,1.641,3.931v.031a6.232,6.232,0,0,1-.657,3.057q5,3.318,2.052,9.47-2.872,6.016-13.967,14.894a1.108,1.108,0,0,1-.873.228h0a100.385,100.385,0,0,1-23.965-6.973,66.209,66.209,0,0,1-18.263-11.817q-3.8-2.986-7.1-2.164-3.4.848-6.58,5.733a1.1,1.1,0,0,1-.7.479q-4.686,1.042-6.517.693h0q-1.836-.35-1.807-1.885a3.892,3.892,0,0,1,1.253-2.361q2.31-2.51,9.822-7.367-7.3.6-7.986-1.221-.941-2.476,9.88-7.5a1.1,1.1,0,0,1,.461-.1Z" transform="translate(-320.626 -872.416)" fill="#631941"/>
            <path id="Контур_17154" data-name="Контур 17154" d="M898.842,1035.991q1.77-6.207-2.745-8.291a23.09,23.09,0,0,0-2.179,1q4.583,2.256,1.4,7.085.763.747-.774,2.907,9.008-.82-1.113,13c1.2-.655,2.712-1.534,3.72-2.166q8.281-9.206,1.689-13.536" transform="translate(-771.233 -887.187)" fill="#fff" fill-rule="evenodd" opacity="0.5"/>
            <path id="Контур_17155" data-name="Контур 17155" d="M821.02,1061.405a1.1,1.1,0,0,1,2.175.362q-.643,3.794-5.608,4.884-4.429.972-12.575-.258a1.106,1.106,0,1,1,.328-2.188q7.747,1.169,11.782.284,3.5-.768,3.9-3.09" transform="translate(-694.094 -915.488)" fill="#631941"/>
            <path id="Контур_17156" data-name="Контур 17156" d="M501.329,1208.127a1.1,1.1,0,0,1,2.188.2,159.679,159.679,0,0,1-2.406,17.646q-1.462,7.028-3.455,10.175a1.1,1.1,0,0,1-1.864-1.172q1.778-2.813,3.162-9.452a158.1,158.1,0,0,0,2.372-17.394" transform="translate(-427.836 -1042.081)" fill="#631941"/>
            <path id="Контур_17157" data-name="Контур 17157" d="M532.78,1187.36q10.34-2.781,17.254-16.365a69.275,69.275,0,0,1-7.5-4.185q-2.437,7.974-8.47,10.983-.577,5.349-1.287,9.571" transform="translate(-459.91 -1007.277)" fill="#e61e24" fill-rule="evenodd"/>
            <path id="Контур_17158" data-name="Контур 17158" d="M536.065,1175.719a23.072,23.072,0,0,1-9.959,5.75h0a1.121,1.121,0,0,1-.465.022,1.1,1.1,0,0,1-.907-1.269q.354-2.106.673-4.465.313-2.333.6-4.981a1.1,1.1,0,0,1,.61-.927,13.65,13.65,0,0,0,4.754-3.938,19.741,19.741,0,0,0,3.136-6.311,1.081,1.081,0,0,1,.145-.342,1.1,1.1,0,0,1,1.522-.332q1.758,1.132,3.579,2.149t3.752,1.948l.071.033a1.1,1.1,0,0,1,.483,1.484,40.649,40.649,0,0,1-7.994,11.179m-8.871,3.091a21.5,21.5,0,0,0,7.352-4.688,37.349,37.349,0,0,0,7.03-9.591q-1.467-.736-2.891-1.531-1.288-.718-2.5-1.467a21.128,21.128,0,0,1-3.065,5.726,15.866,15.866,0,0,1-4.974,4.284q-.259,2.35-.547,4.512Q527.4,1177.486,527.194,1178.811Z" transform="translate(-452.952 -1000.32)" fill="#631941"/>
            <path id="Контур_17159" data-name="Контур 17159" d="M534.555,1252.654q11.481-3.179,8.546-9.571,5.416-1.349,4.326,7.156a9.9,9.9,0,0,1,.684,7.11,66.791,66.791,0,0,1,5.941,15.836q-4.65,3.321-18.56,6.928a78.913,78.913,0,0,0-17.943,9.161,47.2,47.2,0,0,1-39.608-3.534c8.784-.574,10.826-8.119,3.526-19.3q2.347-3.708,3.979-13.4,8.272,4.1,32.846,2.889,7.09-.808,8.924,3.282c.8-.149,3.95-.733,4.329-.82.052-2.6.319-4.542,3.009-5.743" transform="translate(-412.571 -1072.962)" fill="#7d6991" fill-rule="evenodd"/>
            <path id="Контур_17160" data-name="Контур 17160" d="M479.022,1245.114a1.1,1.1,0,0,1,.572,1.154m52.721-1.072a29.3,29.3,0,0,1-4.318,1.535,3.406,3.406,0,0,0-1.861,1.745,8.092,8.092,0,0,0-.427,2.9,1.107,1.107,0,0,1-.869,1.144c-.273.057-2.843.537-4,.752l-.346.066a1.1,1.1,0,0,1-1.221-.632,4.226,4.226,0,0,0-2.521-2.281,11.712,11.712,0,0,0-5.275-.358h-.07a155.928,155.928,0,0,1-20.646-.118,42.078,42.078,0,0,1-11.41-2.294,66.227,66.227,0,0,1-1.6,6.925,24.6,24.6,0,0,1-1.931,4.869c2.662,4.215,4.028,7.952,4.229,11.026a9.593,9.593,0,0,1-.7,4.512,7.407,7.407,0,0,1-2.777,3.237,9.363,9.363,0,0,1-2.265,1.06,46.077,46.077,0,0,0,35.783,2.039,72.368,72.368,0,0,1,8.386-4.982,89.167,89.167,0,0,1,9.7-4.219h0c.034-.012.067-.023.1-.033a118.715,118.715,0,0,0,11.489-3.5,33.5,33.5,0,0,0,6.1-2.848,62.454,62.454,0,0,0-2.188-7.078,70.267,70.267,0,0,0-3.481-7.761h0a1.092,1.092,0,0,1-.093-.775,9.718,9.718,0,0,0,.291-3.33,8.429,8.429,0,0,0-.885-3.02h0a1.093,1.093,0,0,1-.109-.634q.5-3.869-.388-5.332a1.583,1.583,0,0,0-1.346-.753,5.527,5.527,0,0,1-.769,4.649A10.826,10.826,0,0,1,532.315,1245.2Zm-4.985-.563a27.48,27.48,0,0,0,4.07-1.433,8.751,8.751,0,0,0,3.667-2.714,3.459,3.459,0,0,0,.438-2.985,6.121,6.121,0,0,0-.338-.912,1.1,1.1,0,0,1,.547-1.459,1.179,1.179,0,0,1,.2-.067h0q3.495-.871,5,1.613,1.231,2.039.722,6.426a10.566,10.566,0,0,1,.957,3.5,11.77,11.77,0,0,1-.245,3.659,72.065,72.065,0,0,1,3.4,7.646,64.213,64.213,0,0,1,2.451,8.087,1.1,1.1,0,0,1-.471,1.169,32.4,32.4,0,0,1-7.182,3.5q-4.671,1.744-11.626,3.555a86.685,86.685,0,0,0-9.437,4.1,70.18,70.18,0,0,0-8.23,4.91,1.146,1.146,0,0,1-.345.16,48.309,48.309,0,0,1-40.445-3.646,1.1,1.1,0,0,1,.483-2.051h0a9.174,9.174,0,0,0,4.438-1.292,5.218,5.218,0,0,0,1.956-2.281,7.384,7.384,0,0,0,.524-3.487c-.186-2.847-1.555-6.418-4.247-10.54a1.093,1.093,0,0,1-.007-1.185h0a20.068,20.068,0,0,0,2.042-4.922,68.509,68.509,0,0,0,1.778-8.067,1.1,1.1,0,0,1,1.6-.792q3.946,1.94,11.927,2.643a152.79,152.79,0,0,0,20.3.12,13.83,13.83,0,0,1,6.263.481,6.414,6.414,0,0,1,3.361,2.672c.788-.146,1.9-.353,2.666-.5a8.443,8.443,0,0,1,.573-2.918,5.532,5.532,0,0,1,3.065-2.925A1.2,1.2,0,0,1,527.329,1244.632Z" transform="translate(-405.637 -1066.002)" fill="#631941"/>
            <path id="Контур_17161" data-name="Контур 17161" d="M978.333,1368.061q.714,2.269,1.242,4.554a31.111,31.111,0,0,1-6.877,3.359q-.864-.493-1.808-1.072,7.871-.16,2.62-16.833a70.789,70.789,0,0,1,4.823,9.991" transform="translate(-838.098 -1172.387)" fill="#fff" fill-rule="evenodd" opacity="0.5"/>
            <path id="Контур_17162" data-name="Контур 17162" d="M479.022,1245.114a1.1,1.1,0,0,1,.572,1.154m52.721-1.072a29.3,29.3,0,0,1-4.318,1.535,3.406,3.406,0,0,0-1.861,1.745,8.092,8.092,0,0,0-.427,2.9,1.107,1.107,0,0,1-.869,1.144c-.273.057-2.843.537-4,.752l-.346.066a1.1,1.1,0,0,1-1.221-.632,4.226,4.226,0,0,0-2.521-2.281,11.712,11.712,0,0,0-5.275-.358h-.07a155.928,155.928,0,0,1-20.646-.118,42.078,42.078,0,0,1-11.41-2.294,66.227,66.227,0,0,1-1.6,6.925,24.6,24.6,0,0,1-1.931,4.869c2.662,4.215,4.028,7.952,4.229,11.026a9.593,9.593,0,0,1-.7,4.512,7.407,7.407,0,0,1-2.777,3.237,9.363,9.363,0,0,1-2.265,1.06,46.077,46.077,0,0,0,35.783,2.039,72.368,72.368,0,0,1,8.386-4.982,89.167,89.167,0,0,1,9.7-4.219h0c.034-.012.067-.023.1-.033a118.715,118.715,0,0,0,11.489-3.5,33.5,33.5,0,0,0,6.1-2.848,62.454,62.454,0,0,0-2.188-7.078,70.267,70.267,0,0,0-3.481-7.761h0a1.092,1.092,0,0,1-.093-.775,9.718,9.718,0,0,0,.291-3.33,8.429,8.429,0,0,0-.885-3.02h0a1.093,1.093,0,0,1-.109-.634q.5-3.869-.388-5.332a1.583,1.583,0,0,0-1.346-.753,5.527,5.527,0,0,1-.769,4.649A10.826,10.826,0,0,1,532.315,1245.2Zm-4.985-.563a27.48,27.48,0,0,0,4.07-1.433,8.751,8.751,0,0,0,3.667-2.714,3.459,3.459,0,0,0,.438-2.985,6.121,6.121,0,0,0-.338-.912,1.1,1.1,0,0,1,.547-1.459,1.179,1.179,0,0,1,.2-.067h0q3.495-.871,5,1.613,1.231,2.039.722,6.426a10.566,10.566,0,0,1,.957,3.5,11.77,11.77,0,0,1-.245,3.659,72.065,72.065,0,0,1,3.4,7.646,64.213,64.213,0,0,1,2.451,8.087,1.1,1.1,0,0,1-.471,1.169,32.4,32.4,0,0,1-7.182,3.5q-4.671,1.744-11.626,3.555a86.685,86.685,0,0,0-9.437,4.1,70.18,70.18,0,0,0-8.23,4.91,1.146,1.146,0,0,1-.345.16,48.309,48.309,0,0,1-40.445-3.646,1.1,1.1,0,0,1,.483-2.051h0a9.174,9.174,0,0,0,4.438-1.292,5.218,5.218,0,0,0,1.956-2.281,7.384,7.384,0,0,0,.524-3.487c-.186-2.847-1.555-6.418-4.247-10.54a1.093,1.093,0,0,1-.007-1.185h0a20.068,20.068,0,0,0,2.042-4.922,68.509,68.509,0,0,0,1.778-8.067,1.1,1.1,0,0,1,1.6-.792q3.946,1.94,11.927,2.643a152.79,152.79,0,0,0,20.3.12,13.83,13.83,0,0,1,6.263.481,6.414,6.414,0,0,1,3.361,2.672c.788-.146,1.9-.353,2.666-.5a8.443,8.443,0,0,1,.573-2.918,5.532,5.532,0,0,1,3.065-2.925A1.2,1.2,0,0,1,527.329,1244.632Z" transform="translate(-405.637 -1066.002)" fill="#631941"/>
            <path id="Контур_17163" data-name="Контур 17163" d="M576.695,1279.983a21.544,21.544,0,0,1-.178,2.275,9.9,9.9,0,0,1,.684,7.11l.025.047q-2.943,2.822-11.1,5.771c8.3,4.561.386,14.064-6,7.731-1.99,9.068-15.328,2.838-8.846-4.02q-21.622,4.346-39.641-2.564.42-.994.821-2.214v-.016l.012-.038.01-.03q.347-1.058.609-2.09h0v-.01q27.528,1.778,43.209-.7h0l.108-.02q2.188-.346,4.147-.781l.074-.016h0q13.94-3.094,16.064-10.435" transform="translate(-441.661 -1104.973)" fill="#e61e24" fill-rule="evenodd"/>
            <path id="Контур_17164" data-name="Контур 17164" d="M569.345,1278.394a8.242,8.242,0,0,0-.439-1.981,14.747,14.747,0,0,1-3.761,3.392,34.728,34.728,0,0,1-11.276,4.289l-.068.018h0l-.079.021q-.935.208-2.052.41-1.011.191-2.158.373a1.362,1.362,0,0,1-.152.029.782.782,0,0,1-.1.008,137.188,137.188,0,0,1-18.664,1.406q-10.514.172-23.753-.654l-.057.2c-.115.4-.226.755-.334,1.094l-.011.03h0l-.016.055q-.205.64-.41,1.2l-.011.031a63.054,63.054,0,0,0,17.549,3.636,77.773,77.773,0,0,0,20.371-1.5,1.1,1.1,0,0,1,1.083,1.82c-1.487,1.573-1.71,3.042-1.231,4.174a4.148,4.148,0,0,0,1.979,1.979,4.826,4.826,0,0,0,2.958.477c1.44-.252,2.759-1.334,3.255-3.6h0a1.094,1.094,0,0,1,1.852-.547c1.8,1.777,3.693,2.08,5.154,1.542a4,4,0,0,0,1.778-1.315,3.592,3.592,0,0,0,.754-1.987c.077-1.411-.759-3-3-4.225h0a1.1,1.1,0,0,1,.156-2,56.057,56.057,0,0,0,6.716-2.86,18.777,18.777,0,0,0,3.715-2.413,9.627,9.627,0,0,0,.237-3.1m1.377-5.732c-.007.388-.027.759-.053,1.112-.021.263-.053.569-.093.911a10.589,10.589,0,0,1,.957,3.5,11.844,11.844,0,0,1-.286,3.828,1.094,1.094,0,0,1-.378.846,20.077,20.077,0,0,1-4.462,3.008,51.675,51.675,0,0,1-5.006,2.229,6.155,6.155,0,0,1,2.314,5.012,5.814,5.814,0,0,1-1.2,3.212,6.221,6.221,0,0,1-2.778,2.051,6.572,6.572,0,0,1-6.138-.942,5.916,5.916,0,0,1-4.5,3.648,7.059,7.059,0,0,1-4.332-.684,6.294,6.294,0,0,1-3.009-3.083,5.181,5.181,0,0,1,.063-4.228,78.564,78.564,0,0,1-18.4,1.068,65.19,65.19,0,0,1-19.243-4.163,1.1,1.1,0,0,1-.639-1.423.81.81,0,0,1,.049-.112c.109-.265.231-.574.361-.928s.263-.737.388-1.122l.014-.041v-.01h0l.011-.029c.12-.373.228-.717.316-1.017s.176-.629.274-.989h0v-.012a1.107,1.107,0,0,1,1.212-.841q13.7.882,24.411.708a134.63,134.63,0,0,0,18.494-1.4l.064-.008h.04q1.042-.167,2.1-.365c.636-.12,1.3-.256,1.972-.41a1.064,1.064,0,0,1,.178-.038,32.792,32.792,0,0,0,10.531-3.982,10.281,10.281,0,0,0,4.622-5.663,1.094,1.094,0,0,1,2.156.366Z" transform="translate(-434.589 -1097.597)" fill="#631941"/>
            <path id="Контур_17165" data-name="Контур 17165" d="M708.734,1279.922a21.45,21.45,0,0,1-.178,2.275,9.9,9.9,0,0,1,.684,7.11l.025.048a15.069,15.069,0,0,1-2.581,1.914c-.282-.105-.569-.23-.866-.375,4.3-6.767-16.413,7.11-41.218,2.589l1.592-.879a144.245,144.245,0,0,0,22.15-1.443h0l.109-.021q2.188-.35,4.147-.779l.074-.018h0q13.94-3.094,16.064-10.435" transform="translate(-573.701 -1104.913)" fill="#fff" fill-rule="evenodd" opacity="0.5"/>
            <path id="Контур_17166" data-name="Контур 17166" d="M852.431,1384.225a1.1,1.1,0,0,1,2.166-.41,23.421,23.421,0,0,1,.46,6.09,10.57,10.57,0,0,1-1.354,4.671,1.1,1.1,0,0,1-1.89-1.131,8.421,8.421,0,0,0,1.044-3.7,21.37,21.37,0,0,0-.425-5.513" transform="translate(-735.172 -1193.837)" fill="#631941"/>
            <path id="Контур_17167" data-name="Контур 17167" d="M785.083,1394.015a1.1,1.1,0,1,1-1.926-1.078,13.5,13.5,0,0,1,2.822-3.54,11.141,11.141,0,0,1,3.708-2.207,1.1,1.1,0,1,1,.715,2.078,8.958,8.958,0,0,0-2.965,1.777,11.336,11.336,0,0,0-2.354,2.971" transform="translate(-675.909 -1197.473)" fill="#631941"/>
            <path id="Контур_17168" data-name="Контур 17168" d="M815.362,1414.939a1.308,1.308,0,0,0,1.392.65c1.532-.3,3.1-5.332,3.308-6.689-1.175.8-5.671,4.295-4.7,6.039" transform="translate(-703.725 -1216.267)" fill="#631941" fill-rule="evenodd"/>
            <path id="Контур_17169" data-name="Контур 17169" d="M814.511,1414.306a1.521,1.521,0,0,1-.684-.641c-.417-.751.008-1.732.769-2.71a20.559,20.559,0,0,1,4-3.619h0a.215.215,0,0,1,.156-.034.218.218,0,0,1,.185.249,20.673,20.673,0,0,1-1.593,4.725c-.555,1.121-1.211,2.015-1.89,2.146a1.52,1.52,0,0,1-.937-.116m-.306-.856a1.088,1.088,0,0,0,1.16.539c.521-.1,1.079-.9,1.578-1.914a21.163,21.163,0,0,0,1.444-4.059,19.429,19.429,0,0,0-3.448,3.206c-.665.85-1.049,1.671-.74,2.229Z" transform="translate(-702.376 -1214.884)" fill="#631941"/>
            <path id="Контур_17170" data-name="Контур 17170" d="M885.854,1412.372a1,1,0,0,1-.934.715c-1.2.03-3.2-3.477-3.579-4.457,1.009.4,4.951,2.276,4.514,3.742" transform="translate(-760.796 -1216.034)" fill="#631941" fill-rule="evenodd"/>
            <path id="Контур_17171" data-name="Контур 17171" d="M884.005,1411.269a.783.783,0,0,0,.273-.384v-.012c.137-.442-.273-.971-.883-1.479l-.014-.01a14.488,14.488,0,0,0-2.968-1.764,16.172,16.172,0,0,0,1.682,2.661c.531.663,1.068,1.159,1.455,1.15a.791.791,0,0,0,.455-.161m.691-.259h0a1.218,1.218,0,0,1-1.134.853c-.547.015-1.2-.547-1.811-1.313a15.9,15.9,0,0,1-1.978-3.281.217.217,0,0,1,.126-.283.225.225,0,0,1,.16,0,15.851,15.851,0,0,1,3.6,2.051l.014.012c.739.615,1.221,1.295,1.027,1.944Z" transform="translate(-759.432 -1214.602)" fill="#631941"/>
            <path id="Контур_17172" data-name="Контур 17172" d="M881.423,1380.246a1.1,1.1,0,1,1,.4-2.16,21.947,21.947,0,0,1,2.366.555,6.612,6.612,0,0,1,1.655.709,1.1,1.1,0,1,1-1.2,1.846,4.553,4.553,0,0,0-1.094-.451,19.892,19.892,0,0,0-2.125-.495" transform="translate(-760.091 -1189.65)" fill="#631941"/>
            <path id="Контур_17173" data-name="Контур 17173" d="M796.331,1470.137q3.5.921,5.52-1.367.185,6.384-.205,12.938a19.536,19.536,0,0,1-8.416-1.8q2.8-3.573,3.1-9.769" transform="translate(-684.737 -1267.951)" fill="#e61e24" fill-rule="evenodd"/>
            <path id="Контур_17174" data-name="Контур 17174" d="M792.784,1464.288a6.638,6.638,0,0,1-2.381.127,21.743,21.743,0,0,1-.885,4.558,15.263,15.263,0,0,1-1.546,3.407,18.446,18.446,0,0,0,2.644.774,18.723,18.723,0,0,0,3.049.391q.146-2.751.189-5.41.033-2.122,0-4.239a5.572,5.572,0,0,1-1.074.385m-3.1-2.243a5.221,5.221,0,0,0,2.585.112,3.556,3.556,0,0,0,1.83-1.15,1.094,1.094,0,0,1,1.924.7h0q.094,3.206.042,6.472-.053,3.3-.249,6.563a1.1,1.1,0,0,1-1.154,1.035,21.09,21.09,0,0,1-4.492-.454,20.653,20.653,0,0,1-4.326-1.441,1.094,1.094,0,0,1-.547-1.458,1.01,1.01,0,0,1,.148-.238,12.307,12.307,0,0,0,1.975-3.867,20.874,20.874,0,0,0,.88-5.258,1.1,1.1,0,0,1,1.15-1.049,1.142,1.142,0,0,1,.23.035Z" transform="translate(-677.799 -1260.915)" fill="#631941"/>
            <path id="Контур_17175" data-name="Контур 17175" d="M887.825,1482.5h0a102.375,102.375,0,0,1-13.919,4.46q-1.971.726-3.854,1.515-.784,10.625,6.882,10.246,13.206-1.214,8.879-6.588-.957-4.238,2.012-9.634" transform="translate(-750.989 -1279.803)" fill="#fff" fill-rule="evenodd"/>
            <path id="Контур_17176" data-name="Контур 17176" d="M870.1,1492.828h-.044m4.427-16.164q3.409-1.094,5.913-2.159a1.1,1.1,0,0,1,1.418,1.537,17.372,17.372,0,0,0-1.877,4.8,9.556,9.556,0,0,0-.078,3.828,6.017,6.017,0,0,1,.957,1.766,3.188,3.188,0,0,1-.4,2.937,5.828,5.828,0,0,1-2.663,1.906,27.9,27.9,0,0,1-7.659,1.548l-.093.008q-4.451.222-6.52-2.858-1.932-2.88-1.513-8.566h0a1.1,1.1,0,0,1,.677-.939q.957-.4,1.926-.782t1.971-.751h0c.034-.012.067-.023.1-.033q4.379-1.136,7.836-2.24Zm4.165.9q-1.613.593-3.491,1.2-3.475,1.112-7.878,2.256-.968.357-1.9.722-.632.249-1.247.5-.217,4.418,1.186,6.507,1.368,2.043,4.582,1.884a25.657,25.657,0,0,0,7.022-1.392,3.789,3.789,0,0,0,1.69-1.13,1.1,1.1,0,0,0,.112-1.013,4.089,4.089,0,0,0-.748-1.262,1.093,1.093,0,0,1-.222-.481,11.632,11.632,0,0,1,.025-4.962,16.938,16.938,0,0,1,.869-2.823Z" transform="translate(-744.008 -1272.819)" fill="#631941"/>
            <path id="Контур_17177" data-name="Контур 17177" d="M875.49,1561.515q1.537,3.846,6.2,3.614a37.038,37.038,0,0,0,5.295-.82,6.856,6.856,0,0,0-11.489-2.8" transform="translate(-755.746 -1346.211)" fill="#f9944b" fill-rule="evenodd"/>
            <path id="Контур_17178" data-name="Контур 17178" d="M870.1,1492.828h-.044m4.427-16.164q3.409-1.094,5.913-2.159a1.1,1.1,0,0,1,1.418,1.537,17.372,17.372,0,0,0-1.877,4.8,9.556,9.556,0,0,0-.078,3.828,6.017,6.017,0,0,1,.957,1.766,3.188,3.188,0,0,1-.4,2.937,5.828,5.828,0,0,1-2.663,1.906,27.9,27.9,0,0,1-7.659,1.548l-.093.008q-4.451.222-6.52-2.858-1.932-2.88-1.513-8.566h0a1.1,1.1,0,0,1,.677-.939q.957-.4,1.926-.782t1.971-.751h0c.034-.012.067-.023.1-.033q4.379-1.136,7.836-2.24Zm4.165.9q-1.613.593-3.491,1.2-3.475,1.112-7.878,2.256-.968.357-1.9.722-.632.249-1.247.5-.217,4.418,1.186,6.507,1.368,2.043,4.582,1.884a25.657,25.657,0,0,0,7.022-1.392,3.789,3.789,0,0,0,1.69-1.13,1.1,1.1,0,0,0,.112-1.013,4.089,4.089,0,0,0-.748-1.262,1.093,1.093,0,0,1-.222-.481,11.632,11.632,0,0,1,.025-4.962,16.938,16.938,0,0,1,.869-2.823Z" transform="translate(-744.008 -1272.819)" fill="#631941"/>
            <path id="Контур_17179" data-name="Контур 17179" d="M486.962,1566.621h0a47.193,47.193,0,0,0,22.674,4.873h0q.624,19.2-20.106,17.75-6.261-.435-3.217-5.629,1.283-5.9.642-17" transform="translate(-418.939 -1352.422)" fill="#fff" fill-rule="evenodd"/>
            <path id="Контур_17180" data-name="Контур 17180" d="M490.832,1564.614a48.427,48.427,0,0,1-9.608-3.145q.2,4.464.066,8.049a43.325,43.325,0,0,1-.821,7.4h0a1.1,1.1,0,0,1-.127.324q-1.2,2.051-.71,2.9.513.894,3.05,1.073,9.906.684,14.585-3.442,4.351-3.843,4.359-12.084a48.205,48.205,0,0,1-10.789-1.072m-11.585-5.709h0a1.105,1.105,0,0,1,1.339-.172,46.129,46.129,0,0,0,22.077,4.727h.04a1.1,1.1,0,0,1,1.105,1.1v.064q.291,10.03-5.093,14.792t-16.19,3.992q-3.722-.259-4.819-2.175t.63-4.944a41.5,41.5,0,0,0,.747-6.854q.157-4.188-.16-9.691a1.1,1.1,0,0,1,.32-.839Z" transform="translate(-412.005 -1345.486)" fill="#631941"/>
            <path id="Контур_17181" data-name="Контур 17181" d="M497.141,1566.63h0a47.161,47.161,0,0,0,7.968,3.083,6.491,6.491,0,0,1-8,9.758,88.543,88.543,0,0,0,.031-12.841" transform="translate(-429.119 -1352.431)" fill="#b4acbd" fill-rule="evenodd"/>
            <path id="Контур_17182" data-name="Контур 17182" d="M433.716,1526.831a1.1,1.1,0,0,1,1.907-1.11,4.872,4.872,0,0,0,2.462,2.237,6.337,6.337,0,0,0,3.749.034,1.1,1.1,0,1,1,.517,2.14,8.461,8.461,0,0,1-5.035-.112,7,7,0,0,1-3.6-3.186" transform="translate(-374.28 -1316.666)" fill="#631941"/>
            <path id="Контур_17183" data-name="Контур 17183" d="M1028.73,1265.25q-8.933,1.294-11.943-2.1-7.249-10.4-7.487-21.4.443-5.54,14.479-.37,13.971,20.465,4.951,23.875" transform="translate(-871.255 -1069.492)" fill="#fc0" fill-rule="evenodd"/>
            <path id="Контур_17184" data-name="Контур 17184" d="M1014.553,1257.313a22.892,22.892,0,0,0,6.985-.107,5.276,5.276,0,0,0,1.005-.528,3.92,3.92,0,0,0,1.681-3.046,13.65,13.65,0,0,0-1.13-5.848,63.8,63.8,0,0,0-6.941-12.467q-6.578-2.392-9.9-2.307-2.6.066-2.764,1.827a33.894,33.894,0,0,0,1.929,10.424,42.782,42.782,0,0,0,5.334,10.255,6.561,6.561,0,0,0,3.8,1.8m7.417,2.051a25.105,25.105,0,0,1-7.8.116,8.577,8.577,0,0,1-5.125-2.581c-.027-.033-.055-.067-.079-.1h0a44.8,44.8,0,0,1-5.627-10.819,36.064,36.064,0,0,1-2.052-11.191v-.108h0q.3-3.757,4.914-3.876,3.829-.1,11.044,2.557a1.106,1.106,0,0,1,.547.442,66.588,66.588,0,0,1,7.362,13.2,15.722,15.722,0,0,1,1.258,6.836,6.011,6.011,0,0,1-2.629,4.66,7.571,7.571,0,0,1-1.584.82,1.271,1.271,0,0,1-.232.059Z" transform="translate(-864.34 -1062.523)" fill="#631941"/>
            <path id="Контур_17185" data-name="Контур 17185" d="M1015.907,1258.992a23.094,23.094,0,0,0,7.078-.109,5.715,5.715,0,0,0,.781-.375c-.112.018-.227.033-.346.048a22.958,22.958,0,0,1-5.574-.157.621.621,0,0,1-.1-.011c-2.131-.37-4.016-1.989-5.794-4.81a57.015,57.015,0,0,1-4.976-11.3,23.755,23.755,0,0,1-1.5-6.09,5.688,5.688,0,0,1,.093-1.47c-.066.04-.127.081-.186.123a1.9,1.9,0,0,0-.714,1.443,34.137,34.137,0,0,0,1.942,10.511,42.922,42.922,0,0,0,5.368,10.312,6.752,6.752,0,0,0,3.936,1.884m7.425,1.623a24.93,24.93,0,0,1-7.729.118,8.375,8.375,0,0,1-5-2.51c-.023-.027-.044-.053-.064-.082h0a44.553,44.553,0,0,1-5.608-10.766,35.907,35.907,0,0,1-2.039-11.123v-.086h0a3.566,3.566,0,0,1,1.427-2.735,5.677,5.677,0,0,1,3.283-.932.88.88,0,0,1,.388,1.679h0c-.588.274-.821.908-.769,1.933a22.642,22.642,0,0,0,1.416,5.6,55.619,55.619,0,0,0,4.8,10.938c1.5,2.38,3,3.731,4.6,4.009h.027a21.424,21.424,0,0,0,5.145.15,4.668,4.668,0,0,0,2.644-.969.881.881,0,0,1,1.444.9h0a5.6,5.6,0,0,1-1.391,2.324,6.614,6.614,0,0,1-2.395,1.5.916.916,0,0,1-.19.045Z" transform="translate(-865.73 -1063.984)" fill="#631941"/>
            <path id="Контур_17186" data-name="Контур 17186" d="M1079.933,1164.721a16.723,16.723,0,0,0,6.062.062s6.642-5.606,20.542-16.02c2.642-1.979,3.782-3.631,2.846-5.813l-3.651-6.866q-3.076-5.359-6.93-1.732-17.233,15.774-22.7,19.731-.741,3.737,3.839,10.64" transform="translate(-928.828 -977.992)" fill="#8e7ca3" fill-rule="evenodd"/>
            <path id="Контур_17187" data-name="Контур 17187" d="M1079.907,1285.583a16.72,16.72,0,0,0,6.062.061s.535-.451,1.615-1.334a36.368,36.368,0,0,1-3.746-1.5,17.882,17.882,0,0,1-5.115-9.923q-1.562,1.261-2.655,2.051-.741,3.737,3.839,10.64" transform="translate(-928.802 -1098.853)" fill="#e61e24" fill-rule="evenodd"/>
            <path id="Контур_17188" data-name="Контур 17188" d="M1077.5,1281.2a20.548,20.548,0,0,1-3.33-.319h0a.881.881,0,0,1-.584-.383,30.462,30.462,0,0,1-3.342-6.3,9.472,9.472,0,0,1-.628-4.993h0a.882.882,0,0,1,.349-.547c.379-.273.776-.573,1.191-.893s.88-.684,1.381-1.094a.882.882,0,0,1,1.465.476,20.611,20.611,0,0,0,1.829,5.421,14.515,14.515,0,0,0,2.917,3.931q1.128.508,1.976.846.894.359,1.5.547a.879.879,0,0,1,.326,1.533c-1.039.847-1.544,1.274-1.544,1.274h0a.882.882,0,0,1-.458.242,15.369,15.369,0,0,1-3.05.261m-2.655-2a18.3,18.3,0,0,0,2.669.237,13.835,13.835,0,0,0,2.485-.193l.241-.2-.171-.067q-.973-.389-2.179-.932a.916.916,0,0,1-.256-.187,16.319,16.319,0,0,1-3.362-4.49,21.337,21.337,0,0,1-1.679-4.491l-.353.273c-.343.274-.656.5-.935.71a8.311,8.311,0,0,0,.6,3.735,27.872,27.872,0,0,0,2.939,5.6Z" transform="translate(-923.216 -1093.278)" fill="#631941"/>
            <path id="Контур_17189" data-name="Контур 17189" d="M1216.547,1150.01l1.662-1.247c2.642-1.979,3.782-3.631,2.846-5.814l-3.65-6.866q-3.076-5.358-6.93-1.732-2.7,2.473-5.114,4.649h0a28.082,28.082,0,0,0,6.224,10.718,27.059,27.059,0,0,0,4.962.287" transform="translate(-1040.499 -977.992)" fill="#fc0" fill-rule="evenodd"/>
            <path id="Контур_17190" data-name="Контур 17190" d="M1213.163,1143.889l-1.631,1.224a.868.868,0,0,1-.518.2,21.983,21.983,0,0,1-2.388-.019q-1.268-.073-2.708-.274a.873.873,0,0,1-.547-.273,28.984,28.984,0,0,1-6.428-11.056h0a.889.889,0,0,1,.249-.916l2.485-2.255,2.584-2.353.036-.036a7.677,7.677,0,0,1,1.421-1.079h0a4.126,4.126,0,0,1,2.84-.565,4.753,4.753,0,0,1,2.567,1.534,10.834,10.834,0,0,1,1.45,2l.037.063,3.651,6.865h0l.031.067a4.068,4.068,0,0,1-.116,3.744,10.359,10.359,0,0,1-3.009,3.12m-2.5-.325,1.443-1.083a8.712,8.712,0,0,0,2.516-2.54,2.408,2.408,0,0,0,.071-2.173l-3.642-6.85h0a9.067,9.067,0,0,0-1.208-1.682,3.083,3.083,0,0,0-1.609-1.009,2.4,2.4,0,0,0-1.641.358h0a5.889,5.889,0,0,0-1.094.831l-.053.047-2.586,2.364-2.064,1.872a27.239,27.239,0,0,0,5.645,9.617q1.214.157,2.279.22,1.042.064,1.941.033Z" transform="translate(-1034.925 -972.414)" fill="#631941"/>
            <path id="Контур_17191" data-name="Контур 17191" d="M1281.893,1218.145a.662.662,0,1,1-.253-1.3,23.5,23.5,0,0,1,2.809-.4,12.38,12.38,0,0,1,2.325.026.662.662,0,1,1-.154,1.315,11,11,0,0,0-2.076-.022,22.228,22.228,0,0,0-2.649.375" transform="translate(-1105.883 -1050.094)" fill="#631941"/>
            <path id="Контур_17192" data-name="Контур 17192" d="M937.214,1187.548a37.486,37.486,0,0,1-5.95-19.06,2.833,2.833,0,0,1,2.487-2.71,124.41,124.41,0,0,0-11.314-11.759,26.9,26.9,0,0,1-3.537,4.827q2.332,3.522,4.849,7.512,4.626-1.153,4.505,4.881a21.56,21.56,0,0,1-.179,2.275,9.9,9.9,0,0,1,.684,7.11l.025.046a69.943,69.943,0,0,1,4.26,9.954,2.706,2.706,0,0,0,4.174-3.08" transform="translate(-793.219 -996.235)" fill="#fff" fill-rule="evenodd"/>
            <path id="Контур_17193" data-name="Контур 17193" d="M926.929,1170.905a40.335,40.335,0,0,0,4.214,9.125,1.025,1.025,0,0,1,.123.241,3.783,3.783,0,0,1-1.246,4.3l-.071.057a3.819,3.819,0,0,1-4.557-.021h0a1.1,1.1,0,0,1-.382-.529q-.821-2.446-1.876-4.907-1.036-2.423-2.318-4.885h0a1.11,1.11,0,0,1-.118-.82,9.716,9.716,0,0,0,.291-3.329,8.427,8.427,0,0,0-.885-3.02h0a1.092,1.092,0,0,1-.109-.629c.044-.35.083-.729.116-1.142.03-.393.049-.733.055-1.021q.049-2.57-.777-3.469-.684-.741-2.363-.32h0a1.1,1.1,0,0,1-1.2-.483q-1.191-1.889-2.462-3.86-1.206-1.868-2.344-3.585a1.1,1.1,0,0,1,.066-1.386q1.138-1.276,1.984-2.432a19.918,19.918,0,0,0,1.41-2.188h0a1.078,1.078,0,0,1,.165-.23,1.094,1.094,0,0,1,1.554-.042q4.077,3.853,6.888,6.776,2.881,2.99,4.54,5.1h0a1.1,1.1,0,0,1-.629,1.754,1.814,1.814,0,0,0-1.619,1.7,33.635,33.635,0,0,0,1.544,9.258m2.3,10.205a42.378,42.378,0,0,1-4.4-9.55,35.812,35.812,0,0,1-1.641-9.953v-.108h0a3.71,3.71,0,0,1,1.778-3.093q-1.411-1.663-3.448-3.782-2.48-2.579-5.813-5.759c-.259.4-.539.805-.841,1.218q-.7.957-1.555,1.955.957,1.453,1.927,2.955t2.069,3.239a3.98,3.98,0,0,1,3.72,1.122q1.422,1.542,1.355,5.006c-.008.4-.027.786-.055,1.15-.021.263-.053.569-.093.911a10.589,10.589,0,0,1,.957,3.5,11.762,11.762,0,0,1-.245,3.657q1.2,2.332,2.222,4.724,1,2.333,1.812,4.7a1.587,1.587,0,0,0,1.662-.145l.049-.031a1.627,1.627,0,0,0,.539-1.714Z" transform="translate(-786.235 -989.333)" fill="#631941"/>
            <path id="Контур_17194" data-name="Контур 17194" d="M920.6,1174.274q-.759.992-1.7,2.051,1.707,2.579,3.512,5.4a5.227,5.227,0,0,0-1.808-7.458" transform="translate(-793.219 -1013.717)" fill="#e61e24" fill-rule="evenodd"/>
            <path id="Контур_17195" data-name="Контур 17195" d="M911.979,1167.632c.291-.353.547-.684.78-.978h0a1.094,1.094,0,0,1,1.41-.294,6.32,6.32,0,0,1,2.188,9.024h0a1.094,1.094,0,0,1-1.845-.017q-.859-1.345-1.771-2.748-.793-1.22-1.731-2.636h0a1.1,1.1,0,0,1,.093-1.336c.274-.3.557-.639.873-1.02m1.877,1.194-.176.213c-.111.137-.234.273-.366.433q.591.9,1.277,1.954l.6.923a4.128,4.128,0,0,0-.812-2.958,4.075,4.075,0,0,0-.513-.562Z" transform="translate(-786.25 -1006.767)" fill="#631941"/>
            <path id="Контур_17196" data-name="Контур 17196" d="M135.822,1415.041h0c-1.223,21.254,11.544,27.043,23.738,16.325.39-.026.765-.066,1.127-.118q.771.757,1.531,1.541c-6.82,12.456-33.213-1.563-47.029-4.731a8,8,0,0,1-6.049-8.268c.713-11.29,19.914-8.9,26.68-4.751" transform="translate(-94.198 -1218.591)" fill="#fff" fill-rule="evenodd"/>
            <path id="Контур_17197" data-name="Контур 17197" d="M152.581,1423.342a1.1,1.1,0,0,1,.512.105m-.022,2.066a23.668,23.668,0,0,1-6.975,4.29c3.378-.215,6.118-1.318,7.8-3.779l-.156-.158-.38-.38h-.044Zm-23.106-2.431c-1.641-3.555-2.484-8.34-2.217-14.344a29.294,29.294,0,0,0-11.295-2.907,21.755,21.755,0,0,0-7.425.666,8.081,8.081,0,0,0-4.787,3.281,6.769,6.769,0,0,0-.944,3.157,6.9,6.9,0,0,0,5.217,7.13h0c3.456.793,7.691,2.257,12.207,3.82,4.15,1.436,8.55,2.959,12.776,4.1A14.55,14.55,0,0,1,129.964,1423.082Zm-.584-15.948a1.105,1.105,0,0,1,.6,1.119c-.324,5.906.442,10.555,1.989,13.914a11.11,11.11,0,0,0,4.8,5.429,9.572,9.572,0,0,0,6.6.729,19.669,19.669,0,0,0,8.532-4.709,1.094,1.094,0,0,1,.684-.273c.181-.014.346-.026.5-.042h0c.172-.019.346-.041.518-.066a1.1,1.1,0,0,1,.949.331q.357.353.751.749c.263.265.533.547.771.786a1.1,1.1,0,0,1,.137,1.367c-5.616,10.077-22.237,4.327-36.2-.5-4.444-1.536-8.61-2.978-12-3.756h-.022a9.112,9.112,0,0,1-6.881-9.407,8.929,8.929,0,0,1,1.261-4.167,10.2,10.2,0,0,1,6.037-4.251,24.015,24.015,0,0,1,8.193-.75C121.509,1403.942,126.48,1405.383,129.38,1407.134Z" transform="translate(-87.254 -1211.668)" fill="#631941"/>
            <path id="Контур_17198" data-name="Контур 17198" d="M126.89,1414.57c4.481-4.091,14.168-3.395,20.532-1.206q-9.039,15.293-20.532,1.206" transform="translate(-109.535 -1218.604)" fill="#b4acbd" fill-rule="evenodd"/>
            <path id="Контур_17199" data-name="Контур 17199" d="M606.012,668.189a1.1,1.1,0,0,1,1.933-1.053,47.317,47.317,0,0,0,5.571,8.267,21.91,21.91,0,0,0,5.757,4.9,1.1,1.1,0,1,1-1.078,1.924,23.972,23.972,0,0,1-6.345-5.387,49.942,49.942,0,0,1-5.838-8.655" transform="translate(-523.01 -575.426)" fill="#631941"/>
            <path id="Контур_17200" data-name="Контур 17200" d="M600.506,705.65c-15.692,29.142,10.2,34,8.629,9.024a29.128,29.128,0,0,1-8.629-9.024" transform="translate(-513.997 -609.169)" fill="#631941" fill-rule="evenodd"/>
            <path id="Контур_17201" data-name="Контур 17201" d="M588.388,720.439c-1.778-4.293-1.368-11.824,4.255-22.259h0a1.087,1.087,0,0,1,.364-.4,1.1,1.1,0,0,1,1.524.314,37.085,37.085,0,0,0,4.04,5.166l.062.061a21.293,21.293,0,0,0,4.167,3.445,1.093,1.093,0,0,1,.547.88c.509,8.059-1.778,13.236-4.705,15.64a6.387,6.387,0,0,1-5.762,1.459,6.9,6.9,0,0,1-4.485-4.311m5.359-19.6c-4.461,8.9-4.8,15.19-3.322,18.757a4.8,4.8,0,0,0,3.017,3.026,4.215,4.215,0,0,0,3.794-1.027c2.391-1.963,4.262-6.318,3.935-13.246a24.041,24.041,0,0,1-4.135-3.5l-.057-.064a36.983,36.983,0,0,1-3.239-3.942Z" transform="translate(-507.104 -602.222)" fill="#631941"/>
            <path id="Контур_17202" data-name="Контур 17202" d="M888.3,680.075a1.1,1.1,0,0,1,1.837,1.216,40.928,40.928,0,0,1-5.405,6.725,20,20,0,0,1-5.634,4.023,1.1,1.1,0,1,1-.915-2,17.88,17.88,0,0,0,5-3.592,39.084,39.084,0,0,0,5.113-6.37" transform="translate(-757.512 -586.665)" fill="#631941"/>
            <path id="Контур_17203" data-name="Контур 17203" d="M895.14,711.83c10.869,24.982-10.705,27.192-7.7,6.8a23.974,23.974,0,0,0,7.7-6.8" transform="translate(-765.814 -614.504)" fill="#631941" fill-rule="evenodd"/>
            <path id="Контур_17204" data-name="Контур 17204" d="M889.181,722.14c1.418-2.747,1.577-7.773-1.324-15.153a29.664,29.664,0,0,1-2.786,2.832,19.952,19.952,0,0,1-3.578,2.565c-.709,5.536.495,9.146,2.272,10.874a3.29,3.29,0,0,0,2.872,1.054,3.8,3.8,0,0,0,2.544-2.174m.027-17.651c3.893,8.979,3.705,15.227,1.931,18.66a5.889,5.889,0,0,1-4.114,3.333,5.475,5.475,0,0,1-4.8-1.641c-2.273-2.212-3.83-6.674-2.843-13.321a1.094,1.094,0,0,1,.646-.849,17.293,17.293,0,0,0,3.582-2.491,30.083,30.083,0,0,0,3.693-3.983,1.1,1.1,0,0,1,1.9.291Z" transform="translate(-758.848 -607.547)" fill="#631941"/>
            <path id="Контур_17205" data-name="Контур 17205" d="M793.8,895c2.052-.168,3.752.323,3.816,1.094s-1.357,3.759-3.4,3.928-3.935-2.542-4-3.317,1.541-1.538,3.583-1.708" transform="translate(-682.136 -772.603)" fill="#631941" fill-rule="evenodd"/>
            <path id="Контур_17206" data-name="Контур 17206" d="M789.165,889.26a6.582,6.582,0,0,0-2.236-.159h-.021a6.543,6.543,0,0,0-2.2.526c-.212.1-.368-.094-.375-.016v.027a3.848,3.848,0,0,0,.944,1.317,2.654,2.654,0,0,0,1.825.975h.072a2.614,2.614,0,0,0,1.6-1.2l.042-.066a3.82,3.82,0,0,0,.715-1.464h0c-.01-.119-.137.137-.368.068m-2.4-2.369a8.758,8.758,0,0,1,3.009.237c1.143.328,1.889.98,1.964,1.872v.112a5.924,5.924,0,0,1-1.107,2.8c-.019.027-.04.053-.06.078a4.667,4.667,0,0,1-3.246,2.129h-.045a4.731,4.731,0,0,1-3.578-1.641,5.594,5.594,0,0,1-1.567-2.687v-.038c-.056-.876.569-1.627,1.629-2.132a8.812,8.812,0,0,1,2.965-.73Z" transform="translate(-675.151 -765.605)" fill="#631941"/>
            <path id="Контур_17207" data-name="Контур 17207" d="M720.5,924.977a1.1,1.1,0,0,1,2.2.077,8.362,8.362,0,0,1-.854,3.616,4.746,4.746,0,0,1-2.126,2.093,6.4,6.4,0,0,1-3.106.571q-3.752-.146-9.941-3.448a1.1,1.1,0,1,1,1.035-1.942q5.744,3.064,8.983,3.19a4.25,4.25,0,0,0,2.052-.347,2.6,2.6,0,0,0,1.16-1.147,6.247,6.247,0,0,0,.595-2.658" transform="translate(-609.514 -797.592)" fill="#631941"/>
            <path id="Контур_17208" data-name="Контур 17208" d="M811.442,914.186a1.1,1.1,0,0,1,2.131-.57,4.4,4.4,0,0,0,2,2.795,4.56,4.56,0,0,0,2.588.555,6.184,6.184,0,0,0,2.819-.918,6.591,6.591,0,0,0,2.963-4.152,1.1,1.1,0,0,1,2.149.513,8.776,8.776,0,0,1-3.955,5.524,8.4,8.4,0,0,1-3.836,1.246,6.753,6.753,0,0,1-3.821-.848,6.547,6.547,0,0,1-3.035-4.132" transform="translate(-700.426 -786.483)" fill="#631941"/>
            <path id="Контур_17209" data-name="Контур 17209" d="M643.069,803.783c1.251.286,1.881,2.2,1.407,4.278s-1.871,3.532-3.123,3.242-1.881-2.188-1.407-4.273,1.871-3.53,3.123-3.246" transform="translate(-552.283 -693.855)" fill="#fff" fill-rule="evenodd"/>
            <path id="Контур_17210" data-name="Контур 17210" d="M905.872,801.371c-1.055.442-1.314,2.219-.581,3.965s2.188,2.813,3.237,2.372,1.314-2.219.581-3.965-2.188-2.814-3.237-2.372" transform="translate(-781.112 -691.716)" fill="#fff" fill-rule="evenodd"/>
            <path id="Контур_17211" data-name="Контур 17211" d="M889.21,1449.41q-2.9,2.882-6.19,1.391a43.871,43.871,0,0,0,6.468,8.807q5.732-1.317,7.487-3.4a15.347,15.347,0,0,1-7.765-6.794" transform="translate(-762.246 -1251.238)" fill="#e61e24" fill-rule="evenodd"/>
            <path id="Контур_17212" data-name="Контур 17212" d="M879.043,1443.163a5.106,5.106,0,0,0,2.435-1.467,1.122,1.122,0,0,1,.3-.227,1.1,1.1,0,0,1,1.484.476,11.913,11.913,0,0,0,2.793,3.525,17.756,17.756,0,0,0,4.441,2.77h0a1.2,1.2,0,0,1,.259.163,1.1,1.1,0,0,1,.137,1.549,8.893,8.893,0,0,1-3.137,2.188,26.452,26.452,0,0,1-4.946,1.578h0a1.094,1.094,0,0,1-1-.273,26.267,26.267,0,0,1-3.068-3.581q-1.654-2.252-3.592-5.458h0a1.1,1.1,0,0,1,1.4-1.574,3.907,3.907,0,0,0,2.5.328m2.953.983a6.6,6.6,0,0,1-2.47,1.165,5.581,5.581,0,0,1-1.133.137q1.127,1.758,2.124,3.116a27.125,27.125,0,0,0,2.374,2.871,22.805,22.805,0,0,0,3.951-1.3,10.286,10.286,0,0,0,1.213-.643,18.607,18.607,0,0,1-3.453-2.364,14.459,14.459,0,0,1-2.61-2.976Z" transform="translate(-755.318 -1244.277)" fill="#631941"/>
            <path id="Контур_17213" data-name="Контур 17213" d="M393.26,399.583c11.927-43.389-14.174-76.735-58.1-67.294C317.4,336.1,304.513,350.345,300,367.4c16.928-29.977,45.524-38.77,66.726-29.146a1.672,1.672,0,0,0-1.3.593c-.938,1.292.916,4.238,4.143,6.581s6.6,3.2,7.54,1.9c.432-.595.274-1.542-.345-2.62,12.139,10.546,19.534,29.1,16.5,54.87" transform="translate(-258.968 -285.467)" fill="#fff" fill-rule="evenodd" opacity="0.5"/>
            <path id="Контур_17214" data-name="Контур 17214" d="M377.786,359.345c2.135,9.935,1.751,21.347-1.592,33.528a1.121,1.121,0,0,1-.033.116c-.447,1.281-.137,2.806.231,4.583a28.75,28.75,0,0,1,.632,4.144,12.165,12.165,0,0,1-.016,1.76c-.449,5.4-4.478,10.692-11.271,14.776-6.616,3.975-15.9,6.836-27.065,7.543h-.03a89.937,89.937,0,0,1-13.049-.156h-.016a51.8,51.8,0,0,1-46.389-47.024,53.755,53.755,0,0,1,9.193-35,46.356,46.356,0,0,1,28.413-19.359c10.815-2.324,20.586-2.092,29.015.224a43.361,43.361,0,0,1,20.9,12.659,47.5,47.5,0,0,1,11.079,22.207M374.072,392.3c3.244-11.825,3.622-22.885,1.556-32.493a45.269,45.269,0,0,0-10.552-21.18A41.2,41.2,0,0,0,345.229,326.6c-8.093-2.223-17.507-2.439-27.98-.19a44.163,44.163,0,0,0-27.058,18.45,51.516,51.516,0,0,0-8.805,33.566,49.592,49.592,0,0,0,44.388,45.013h0a88.1,88.1,0,0,0,12.729.156h.026c10.8-.684,19.739-3.426,26.076-7.234,6.167-3.707,9.815-8.387,10.2-13.068a9.868,9.868,0,0,0,.016-1.448,27.006,27.006,0,0,0-.588-3.828c-.429-2.091-.8-3.879-.164-5.723Z" transform="translate(-240.828 -278.511)" fill="#631941"/>
            <path id="Контур_17215" data-name="Контур 17215" d="M490.832,1564.614a48.427,48.427,0,0,1-9.608-3.145q.2,4.464.066,8.049a43.325,43.325,0,0,1-.821,7.4h0a1.1,1.1,0,0,1-.127.324q-1.2,2.051-.71,2.9.513.894,3.05,1.073,9.906.684,14.585-3.442,4.351-3.843,4.359-12.084a48.205,48.205,0,0,1-10.789-1.072m-11.585-5.709h0a1.105,1.105,0,0,1,1.339-.172,46.129,46.129,0,0,0,22.077,4.727h.04a1.1,1.1,0,0,1,1.105,1.1v.064q.291,10.03-5.093,14.792t-16.19,3.992q-3.722-.259-4.819-2.175t.63-4.944a41.5,41.5,0,0,0,.747-6.854q.157-4.188-.16-9.691a1.1,1.1,0,0,1,.32-.839Z" transform="translate(-412.005 -1345.486)" fill="#631941"/>
            <path id="Контур_17216" data-name="Контур 17216" d="M152.581,1423.342a1.1,1.1,0,0,1,.512.105m-.022,2.066a23.668,23.668,0,0,1-6.975,4.29c3.378-.215,6.118-1.318,7.8-3.779l-.156-.158-.38-.38h-.044Zm-23.106-2.431c-1.641-3.555-2.484-8.34-2.217-14.344a29.294,29.294,0,0,0-11.295-2.907,21.755,21.755,0,0,0-7.425.666,8.081,8.081,0,0,0-4.787,3.281,6.769,6.769,0,0,0-.944,3.157,6.9,6.9,0,0,0,5.217,7.13h0c3.456.793,7.691,2.257,12.207,3.82,4.15,1.436,8.55,2.959,12.776,4.1A14.55,14.55,0,0,1,129.964,1423.082Zm-.584-15.948a1.105,1.105,0,0,1,.6,1.119c-.324,5.906.442,10.555,1.989,13.914a11.11,11.11,0,0,0,4.8,5.429,9.572,9.572,0,0,0,6.6.729,19.669,19.669,0,0,0,8.532-4.709,1.094,1.094,0,0,1,.684-.273c.181-.014.346-.026.5-.042h0c.172-.019.346-.041.518-.066a1.1,1.1,0,0,1,.949.331q.357.353.751.749c.263.265.533.547.771.786a1.1,1.1,0,0,1,.137,1.367c-5.616,10.077-22.237,4.327-36.2-.5-4.444-1.536-8.61-2.978-12-3.756h-.022a9.112,9.112,0,0,1-6.881-9.407,8.929,8.929,0,0,1,1.261-4.167,10.2,10.2,0,0,1,6.037-4.251,24.015,24.015,0,0,1,8.193-.75C121.509,1403.942,126.48,1405.383,129.38,1407.134Z" transform="translate(-87.254 -1211.668)" fill="#631941"/>
            <path id="Контур_17217" data-name="Контур 17217" d="M368.111,658.813a25.147,25.147,0,0,0,15.752-15.164c-23.13,32.609-97.78,9.6-93.851-44.339Q282.336,635.1,312.153,656q27.244,14.092,55.958,2.814" transform="translate(-248.99 -517.369)" fill="#631941" fill-rule="evenodd" opacity="0.5"/>
            <path id="Контур_17218" data-name="Контур 17218" d="M442.454,1055.918q5.814-1.451,9.3-7.45-8.6,6.542-20.4-.936-13.16-9.876-.055-12.96l.081-.018q3.258-.779,5.962-1.546-.669,1.148.576,2.871,4.911,2.1,14.562-2.391-17.476,1.85-8.569-2.648,5.624-2.223,6.479-4.375-30.09,10.091-53.644.66-6.549-4.408-13.49,3.03,1.317,2.584,9.131.711-21.94,13.339-6.7,12.169,8.4-12.483,17.106-3.8a71.261,71.261,0,0,0,39.674,16.681" transform="translate(-327.54 -885.273)" fill="#631941" fill-rule="evenodd" opacity="0.5"/>
            <path id="Контур_17219" data-name="Контур 17219" d="M589.612,1208.073a60.339,60.339,0,0,1,10.073-7.432q-3.57,6.6-7.862,9.708-3.432,1.349-9.3-.615-21-6.756-19.011,6.426,1.915,2.406,15.045,2.118-13.523,3.384-29.807-1.231,12.591-10.1,14.786-16.294,21.473,6.994,26.072,7.324" transform="translate(-473.696 -1036.481)" fill="#631941" fill-rule="evenodd" opacity="0.5"/>
            <path id="Контур_17220" data-name="Контур 17220" d="M374.7,1109.409q-15.848-14.587-19.394-5.768,10.382-3.307,5.881,17.016a119.681,119.681,0,0,1-4.5,18.071h0a13.913,13.913,0,0,0,.473,7.644h0q7.112,17.527-4.176,12.079-1.368-.352-1.811,1.23c.7,5.305-5.21,7.322-12.82,3.383q6.861,9.631,18.3.257,15.045-3.726,4.747-19.293,4.477-15.049,5.069-25.925,4.953,1.822,8.235-8.694" transform="translate(-292.073 -949.876)" fill="#631941" fill-rule="evenodd" opacity="0.5"/>
            <path id="Контур_17221" data-name="Контур 17221" d="M534.209,1351.22l.059-.123c.086-.087.171-.175.254-.273h0a13.422,13.422,0,0,0,3.092-7.52,6.685,6.685,0,0,1-3.589-4.364c-.45-2.286-13.737-1.594-17.719.82-8.056,5.963-6.7,13.262,4.65,15.659q9.5.2,13.253-4.2m-29.826-30.911a57.868,57.868,0,0,0,29.133,1.395q-14.874,1.523-13.13,5.743-8.343,6.657,16.2,5.332-2.442.674-4.6,1.245,2.228.049,2.953.911,1.265-.172,2.882-.45-1.561,4.389,3.03,8.453-.1,8.314-4.674,11.28l.044.193a17.673,17.673,0,0,1-2.6,1.69l.676-.041c-.513.159-1.022.312-1.53.455a11.917,11.917,0,0,1-4.157,1.043q-17.1,3.674-31.263-3.609,10.01-8.765,1.3-20.047,2.115-2.264,2.1-7.185Q500.467,1319.772,504.384,1320.308Z" transform="translate(-429.326 -1139.754)" fill="#631941" fill-rule="evenodd" opacity="0.5"/>
            <path id="Контур_17222" data-name="Контур 17222" d="M864.556,1462.622a52.75,52.75,0,0,0-8.392,3.053q-.023-2.245.484-9.355,2.413-2.956,4.352,1.272a60.169,60.169,0,0,0,3.556,5.026" transform="translate(-739.062 -1256.153)" fill="#631941" fill-rule="evenodd" opacity="0.5"/>
            <path id="Контур_17223" data-name="Контур 17223" d="M917.86,1363.277q6.091-4.351,9.874-5.207a14.106,14.106,0,0,1-6.085,5.879q2.809,5.164-.752,7.586.213-6.035-3.036-8.257" transform="translate(-792.321 -1172.387)" fill="#631941" fill-rule="evenodd" opacity="0.5"/>
            <path id="Контур_17224" data-name="Контур 17224" d="M895.845,1471.129q-8.914-9.8-1.231-7.859.981,5.931,6.8,5.4-2.775,2.8-5.572,2.461" transform="translate(-769.185 -1262.927)" fill="#631941" fill-rule="evenodd" opacity="0.5"/>
            <path id="Контур_17225" data-name="Контур 17225" d="M801.868,1484.492a15.589,15.589,0,0,1,2.77-.2,27.6,27.6,0,0,1-1.045,5.075h0c-.108.331-.223.641-.342.931q-.82,3.026,2.816,4.569-6.66.239-7.127-2.188.572-.82,1.074-1.475,1.522-5.753,1.855-6.709" transform="translate(-689.666 -1281.345)" fill="#631941" fill-rule="evenodd" opacity="0.5"/>
            <path id="Контур_17226" data-name="Контур 17226" d="M143.467,1443.582a57.286,57.286,0,0,1-4.025-7.436c-7.272-1.755-34.7-5.663-20.516-15.595a7.961,7.961,0,0,0-6.241,12.2q22.224,9.771,30.786,10.831" transform="translate(-96.209 -1226.324)" fill="#631941" fill-rule="evenodd" opacity="0.5"/>
            <path id="Контур_17227" data-name="Контур 17227" d="M548.651,1595.581q-8.834-.964-16.168-1.581c8.708,6.321,4.9,16.3-1.983,18.048q17.1,2.994,18.155-16.466" transform="translate(-457.942 -1376.059)" fill="#631941" fill-rule="evenodd" opacity="0.5"/>
            <path id="Контур_17228" data-name="Контур 17228" d="M872,1516.146a7.74,7.74,0,0,1,7.847-.752q.383,9.347,6.87,8.678-5.186,3.671-12.563,1.176-1.74-6.659-2.154-9.1" transform="translate(-752.734 -1307.56)" fill="#631941" fill-rule="evenodd" opacity="0.5"/>
            <path id="Контур_17229" data-name="Контур 17229" d="M961.352,1228.96q-2.589-6.631-4.17-8.067-3.1,1.422-7.8-2.393-2.566,2.4.046,3.428,5.687.8,4.191,7.987a40.091,40.091,0,0,0,4.632,16.381q3.355,1.539,4.322-1.887,11.552,7.267,15.811,1.5a7.734,7.734,0,0,0-.29-8.2,12.706,12.706,0,0,1-8.559.928q-5.537-1.587-8.19-9.676" transform="translate(-818.438 -1051.899)" fill="#631941" fill-rule="evenodd" opacity="0.5"/>
            <path id="Контур_17230" data-name="Контур 17230" d="M1116.38,1167.436q-4.547.636-6.19.047,21.7-15.7,25.12-19.67-1.778-7.908-6.251-10.7,5.726-3.454,7.878,3.511,6.092,7.647-.137,10.9-15.578,11.8-20.413,15.912" transform="translate(-958.346 -980.65)" fill="#631941" fill-rule="evenodd" opacity="0.5"/>
            <path id="Контур_17231" data-name="Контур 17231" d="M312.627,242.253q6.01-14.734,26.483-26.224-3.75,2.169-6.872,3.663.975-.807,2.023-1.747-13.35,7.307-8.682-10.938-4.883-.012-5.293,15.789a4.163,4.163,0,0,0,.339.431c-7.91-.085-6.521-10.026,2-27.426q-16.018,22.351-10,46.453" transform="translate(-268.449 -169.029)" fill="#631941" fill-rule="evenodd" opacity="0.5"/>
            <path id="Контур_17232" data-name="Контур 17232" d="M768.58,299.229a60.829,60.829,0,0,1,10.646,4.69,31.531,31.531,0,0,0,4.832,3.668,53.524,53.524,0,0,0,6.417,5.137,43.124,43.124,0,0,0-3.191-3.108q1.231.744,2.622,1.556-11.474-9.172,2.052-12.233-3.7-3.225-12.081,2.461c-.994-4.661,4.571-7.759,16.935-9.293q-20.906-.984-28.227,7.122" transform="translate(-663.459 -252.076)" fill="#631941" fill-rule="evenodd" opacity="0.5"/>
            <path id="Контур_17233" data-name="Контур 17233" d="M753.331,284.016a43.044,43.044,0,0,1,25.778,21.314,51.351,51.351,0,0,0,1.067-27.773,43.194,43.194,0,0,0-13.907,1.367,58.16,58.16,0,0,0-12.935,5.1m-3.121,1.414a1.1,1.1,0,0,1-.3-2.021,61.142,61.142,0,0,1,15.807-6.627,45.026,45.026,0,0,1,15.431-1.356h0a1.094,1.094,0,0,1,.957.82,53.491,53.491,0,0,1-1.778,32.232,1.094,1.094,0,0,1-.749.727h-.008a1.1,1.1,0,0,1-1.3-.6,41.156,41.156,0,0,0-28.063-23.185Z" transform="translate(-646.879 -237.618)" fill="#631941"/>
            <path id="Контур_17234" data-name="Контур 17234" d="M307.043,228.161A50.071,50.071,0,0,1,318.9,213.136a45.1,45.1,0,0,1,19.9-9.889c.547-.118,1.109-.231,1.693-.342l.2-.038a33.577,33.577,0,0,0-9.042-10.748,44.267,44.267,0,0,0-14.725-7.319c-4.143,4.769-7.1,11.131-8.742,18.938a85.994,85.994,0,0,0-1.142,24.423m-.711,5.2h0a1.106,1.106,0,0,1-1.094-.982c-1.247-11.1-.936-20.845.795-29.078,1.778-8.463,5.061-15.337,9.688-20.446a1.1,1.1,0,0,1,1.154-.36,47.048,47.048,0,0,1,16.139,7.9,35.807,35.807,0,0,1,10.3,12.759,1.063,1.063,0,0,1,.129.379h0a1.1,1.1,0,0,1-.908,1.25q-.821.137-1.63.29-.777.148-1.641.334a42.9,42.9,0,0,0-18.923,9.407,48.453,48.453,0,0,0-12.957,17.795,1.105,1.105,0,0,1-1.055.744Z" transform="translate(-262.835 -157.504)" fill="#631941"/>
            <path id="Контур_17235" data-name="Контур 17235" d="M373.627,1029.189v0Zm74.533-15.712a1.094,1.094,0,0,1-.1,1.493m-53.6,2.267a51.708,51.708,0,0,1-9.654-4.3q-8.432,3.936-8.224,4.485.263.7,10.439-.737h0a1.094,1.094,0,0,1,.729,2.025q-10.75,6.638-13.445,9.571a7.4,7.4,0,0,0-.517.613,17.8,17.8,0,0,0,5.077-.607q3.548-5.269,7.651-6.289,4.348-1.083,9.009,2.589h0l.07.06a64.144,64.144,0,0,0,17.7,11.462,97.479,97.479,0,0,0,22.946,6.731q10.367-8.362,12.976-13.809,2.311-4.829-2.11-7.177h0a1.02,1.02,0,0,1-.164-.107,1.094,1.094,0,0,1-.189-1.544,4.05,4.05,0,0,0,.852-2.672v-.008a4.038,4.038,0,0,0-1.05-2.535l-.053-.052a4.018,4.018,0,0,0-3.966-1.129l-.656.321h0c-.274.127-.532.249-.784.364h0a61.123,61.123,0,0,1-16.537,4.606,86.177,86.177,0,0,1-19.148.462h-.016A51.843,51.843,0,0,1,394.454,1017.236Zm-9.6-6.646h0a1.094,1.094,0,0,1,.618.187,49.478,49.478,0,0,0,20.1,6.568h0a84.1,84.1,0,0,0,18.669-.446,58.959,58.959,0,0,0,15.933-4.434h.027c.252-.115.492-.226.721-.335h0c.349-.167.576-.273.734-.356a1.228,1.228,0,0,1,.186-.071h0a6.262,6.262,0,0,1,6.264,1.719l.055.064a6.227,6.227,0,0,1,1.641,3.931v.031a6.232,6.232,0,0,1-.657,3.057q5,3.318,2.052,9.47-2.872,6.016-13.967,14.894a1.108,1.108,0,0,1-.873.228h0a100.385,100.385,0,0,1-23.965-6.973,66.209,66.209,0,0,1-18.263-11.817q-3.8-2.986-7.1-2.164-3.4.848-6.58,5.733a1.1,1.1,0,0,1-.7.479q-4.686,1.042-6.517.693h0q-1.836-.35-1.807-1.885a3.892,3.892,0,0,1,1.253-2.361q2.31-2.51,9.822-7.367-7.3.6-7.986-1.221-.941-2.476,9.88-7.5a1.1,1.1,0,0,1,.461-.1Z" transform="translate(-320.626 -872.416)" fill="#631941"/>
            <path id="Контур_17236" data-name="Контур 17236" d="M534.746,1185.674a19.311,19.311,0,0,0,8.955-9.024q.532,4.171-5.368,10.424-2.134,5.993,2.407,4.193l-7.249,4.036,1.26-9.629" transform="translate(-460.523 -1015.771)" fill="#631941" fill-rule="evenodd" opacity="0.5"/>
            <path id="Контур_17237" data-name="Контур 17237" d="M569.345,1278.394a8.242,8.242,0,0,0-.439-1.981,14.747,14.747,0,0,1-3.761,3.392,34.728,34.728,0,0,1-11.276,4.289l-.068.018h0l-.079.021q-.935.208-2.052.41-1.011.191-2.158.373a1.362,1.362,0,0,1-.152.029.782.782,0,0,1-.1.008,137.188,137.188,0,0,1-18.664,1.406q-10.514.172-23.753-.654l-.057.2c-.115.4-.226.755-.334,1.094l-.011.03h0l-.016.055q-.205.64-.41,1.2l-.011.031a63.054,63.054,0,0,0,17.549,3.636,77.773,77.773,0,0,0,20.371-1.5,1.1,1.1,0,0,1,1.083,1.82c-1.487,1.573-1.71,3.042-1.231,4.174a4.148,4.148,0,0,0,1.979,1.979,4.826,4.826,0,0,0,2.958.477c1.44-.252,2.759-1.334,3.255-3.6h0a1.094,1.094,0,0,1,1.852-.547c1.8,1.777,3.693,2.08,5.154,1.542a4,4,0,0,0,1.778-1.315,3.592,3.592,0,0,0,.754-1.987c.077-1.411-.759-3-3-4.225h0a1.1,1.1,0,0,1,.156-2,56.057,56.057,0,0,0,6.716-2.86,18.777,18.777,0,0,0,3.715-2.413,9.627,9.627,0,0,0,.237-3.1m1.377-5.732c-.007.388-.027.759-.053,1.112-.021.263-.053.569-.093.911a10.589,10.589,0,0,1,.957,3.5,11.844,11.844,0,0,1-.286,3.828,1.094,1.094,0,0,1-.378.846,20.077,20.077,0,0,1-4.462,3.008,51.675,51.675,0,0,1-5.006,2.229,6.155,6.155,0,0,1,2.314,5.012,5.814,5.814,0,0,1-1.2,3.212,6.221,6.221,0,0,1-2.778,2.051,6.572,6.572,0,0,1-6.138-.942,5.916,5.916,0,0,1-4.5,3.648,7.059,7.059,0,0,1-4.332-.684,6.294,6.294,0,0,1-3.009-3.083,5.181,5.181,0,0,1,.063-4.228,78.564,78.564,0,0,1-18.4,1.068,65.19,65.19,0,0,1-19.243-4.163,1.1,1.1,0,0,1-.639-1.423.81.81,0,0,1,.049-.112c.109-.265.231-.574.361-.928s.263-.737.388-1.122l.014-.041v-.01h0l.011-.029c.12-.373.228-.717.316-1.017s.176-.629.274-.989h0v-.012a1.107,1.107,0,0,1,1.212-.841q13.7.882,24.411.708a134.63,134.63,0,0,0,18.494-1.4l.064-.008h.04q1.042-.167,2.1-.365c.636-.12,1.3-.256,1.972-.41a1.064,1.064,0,0,1,.178-.038,32.792,32.792,0,0,0,10.531-3.982,10.281,10.281,0,0,0,4.622-5.663,1.094,1.094,0,0,1,2.156.366Z" transform="translate(-434.589 -1097.597)" fill="#631941"/>
            <path id="Контур_17238" data-name="Контур 17238" d="M1099.991,1136.72a6.729,6.729,0,0,0-1.231.939q-17.233,15.774-22.7,19.731-.684,3.409,3.077,9.453c.252.129.507.257.774.383-2.462-5.345-2.142-8.059-.063-9.746,14.348-11.642,20.914-18.185,20.914-18.185a24.841,24.841,0,0,0-.767-2.575" transform="translate(-928.789 -981.301)" fill="#fff" fill-rule="evenodd" opacity="0.48"/>
            <path id="Контур_17239" data-name="Контур 17239" d="M1076.114,1159.148a20.537,20.537,0,0,1-3.367-.321h0a1.1,1.1,0,0,1-.728-.476,30.813,30.813,0,0,1-3.366-6.348,9.672,9.672,0,0,1-.637-5.111h0a1.094,1.094,0,0,1,.435-.684q2.707-1.956,8.343-6.851,5.707-4.959,14.224-12.745l.044-.044a7.826,7.826,0,0,1,1.465-1.11,4.278,4.278,0,0,1,2.989-.587,5.022,5.022,0,0,1,2.689,1.6,11.065,11.065,0,0,1,1.485,2.051l.034.06,3.651,6.866.04.086a4.273,4.273,0,0,1-.125,3.932,10.424,10.424,0,0,1-3.077,3.194c-13.843,10.365-20.136,15.688-20.155,15.7a3.37,3.37,0,0,1-.837.521,15.537,15.537,0,0,1-3.106.265m-2.521-2.418a17.9,17.9,0,0,0,2.54.219,13.5,13.5,0,0,0,2.384-.18c1.26-1.052,7.867-6.51,20.364-15.86a8.66,8.66,0,0,0,2.462-2.469,2.2,2.2,0,0,0,.061-1.976l-3.631-6.836a8.937,8.937,0,0,0-1.179-1.641,2.868,2.868,0,0,0-1.489-.943,2.173,2.173,0,0,0-1.487.335,5.593,5.593,0,0,0-1.049.8l-.07.059q-8.654,7.916-14.262,12.791-5.346,4.649-8.109,6.7a8.29,8.29,0,0,0,.6,3.54,27.533,27.533,0,0,0,2.864,5.464Z" transform="translate(-921.834 -971.013)" fill="#631941"/>
            <path id="Контур_17240" data-name="Контур 17240" d="M1099.737,1167.53a.879.879,0,1,1-1.008-1.441q9.027-6.3,15.29-11.2a113.6,113.6,0,0,0,9.373-8.031,25.576,25.576,0,0,0-2.27-6.6,7,7,0,0,0-3.109-3.255.881.881,0,1,1,.717-1.608,8.716,8.716,0,0,1,3.938,4.021,27.971,27.971,0,0,1,2.549,7.55.88.88,0,0,1-.238.8,111.271,111.271,0,0,1-9.877,8.512q-6.292,4.93-15.365,11.255" transform="translate(-948.128 -980.079)" fill="#631941"/>
          </g>
        </g>
      </g>
    </g>
    <g id="Сгруппировать_1790" data-name="Сгруппировать 1790" transform="translate(192 -256)">
      <g id="Ellipse_42" data-name="Ellipse 42" transform="translate(-3899 2731)" fill="#26a17b" stroke="#fff" stroke-width="5">
        <circle cx="44" cy="44" r="44" stroke="none"/>
        <circle cx="44" cy="44" r="46.5" fill="none"/>
      </g>
      <g id="Cjdowner-Cryptocurrency-Flat-Tether-USDT" transform="translate(-3893 2737)">
        <path id="Контур_15477" data-name="Контур 15477" d="M34.084,30.683v0c-.263.019-1.618.1-4.643.1-2.415,0-4.114-.072-4.712-.1v.007C15.435,30.277,8.5,28.658,8.5,26.722s6.938-3.552,16.232-3.968v6.321c.607.043,2.348.146,4.753.146,2.885,0,4.332-.12,4.6-.143V22.758c9.276.414,16.2,2.032,16.2,3.964s-6.921,3.55-16.2,3.961m0-8.582V16.444H47.027V7.819H11.786v8.625H24.729V22.1C14.211,22.581,6.3,24.666,6.3,27.162s7.911,4.578,18.429,5.063V50.351h9.355V32.22c10.5-.483,18.393-2.565,18.393-5.059S44.586,22.586,34.084,22.1" transform="translate(8.761 10.873)" fill="#fff" fill-rule="evenodd"/>
      </g>
    </g>
  </g>
</svg>
